<svg width="24" height="24" viewBox="0 0 24 24" fill="none" xmlns="http://www.w3.org/2000/svg">
<path fill-rule="evenodd" clip-rule="evenodd" d="M9.62034 2.44987C9.08094 3.03818 8.74951 3.90778 8.74951 5C8.74951 5.41421 8.41373 5.75 7.99951 5.75C7.5853 5.75 7.24951 5.41421 7.24951 5C7.24951 3.60694 7.67544 2.35154 8.51472 1.43616C9.36088 0.51329 10.5696 0 11.9995 0C13.4295 0 14.6381 0.51329 15.4843 1.43616C16.3236 2.35154 16.7495 3.60694 16.7495 5C16.7495 5.41421 16.4137 5.75 15.9995 5.75C15.5853 5.75 15.2495 5.41421 15.2495 5C15.2495 3.90778 14.9181 3.03818 14.3787 2.44987C13.8462 1.86907 13.0548 1.5 11.9995 1.5C10.9442 1.5 10.1529 1.86907 9.62034 2.44987Z" fill="#0077FF"/>
<path d="M3.04175 15.0792L2.45654 18.1223C2.21934 19.3558 3.1645 20.5 4.42056 20.5H5.4993C5.4993 21.0523 5.94701 21.5 6.4993 21.5C7.05158 21.5 7.4993 21.0523 7.4993 20.5H16.4993C16.4993 21.0523 16.947 21.5 17.4993 21.5C18.0516 21.5 18.4993 21.0523 18.4993 20.5H19.578C20.8341 20.5 21.7792 19.3558 21.542 18.1223L20.9569 15.0794C18.5682 16.0071 15.9997 16.5747 13.3182 16.7155C13.0641 17.1828 12.5689 17.5 11.9995 17.5C11.4302 17.5 10.9349 17.1828 10.6808 16.7155C7.99914 16.5747 5.43056 16.007 3.04175 15.0792Z" fill="#0077FF"/>
<path d="M20.6685 13.58L19.8113 9.1223C19.6302 8.18062 18.8062 7.5 17.8473 7.5H6.15133C5.19239 7.5 4.36841 8.18063 4.18731 9.12231L3.33009 13.5799C5.63404 14.5063 8.12061 15.0745 10.7208 15.2154C10.9847 14.7862 11.4587 14.5 11.9995 14.5C12.5403 14.5 13.0143 14.7862 13.2782 15.2154C15.8783 15.0745 18.3647 14.5064 20.6685 13.58Z" fill="#0077FF"/>
<circle cx="12" cy="16" r="0.5" fill="#FF5E00"/>
</svg>
