<svg width="24" height="24" viewBox="0 0 24 24" fill="none" xmlns="http://www.w3.org/2000/svg">
<path d="M11 12.75C11 13.7165 10.2165 14.5 9.25 14.5C8.2835 14.5 7.5 13.7165 7.5 12.75C7.5 11.7835 8.2835 11 9.25 11C10.2165 11 11 11.7835 11 12.75Z" fill="#FF5E00"/>
<path d="M6 12.75C6 13.7165 5.55228 14.5 5 14.5C4.44772 14.5 4 13.7165 4 12.75C4 11.7835 4.44772 11 5 11C5.55228 11 6 11.7835 6 12.75Z" fill="#FF5E00"/>
<path d="M16.5 12.75C16.5 13.7165 15.7165 14.5 14.75 14.5C13.7835 14.5 13 13.7165 13 12.75C13 11.7835 13.7835 11 14.75 11C15.7165 11 16.5 11.7835 16.5 12.75Z" fill="#FF5E00"/>
<path d="M20 12.75C20 13.7165 19.5523 14.5 19 14.5C18.4477 14.5 18 13.7165 18 12.75C18 11.7835 18.4477 11 19 11C19.5523 11 20 11.7835 20 12.75Z" fill="#FF5E00"/>
<path d="M4.64068 9.5H19.3593C19.3593 9.5 17.5 2.5 12 2.5C6.50003 2.5 4.64068 9.5 4.64068 9.5Z" fill="#0077FF"/>
<path d="M19.6016 16H4.39844C4.39844 16 5.50003 21.5 12 21.5C18.5 21.5 19.6016 16 19.6016 16Z" fill="#0077FF"/>
</svg>
