<svg width="24" height="24" viewBox="0 0 24 24" fill="none" xmlns="http://www.w3.org/2000/svg">
<g clip-path="url(#clip0_2414_4390)">
<path d="M19.888 4.53231C19.0266 3.73253 17.8814 3.20898 16.5349 3.20898C13.4651 3.20898 12 5.58108 12 5.58108C12 5.58108 10.5349 3.20898 7.46509 3.20898C4.39533 3.20898 2.37207 5.92991 2.37207 8.44154C2.37207 13.7793 8.75018 18.8167 11.1239 20.5066C11.6519 20.8825 12.3481 20.8825 12.8761 20.5066C15.2498 18.8167 21.6279 13.7793 21.6279 8.44154C21.6279 7.56458 21.3812 6.6621 20.9295 5.85883L12.6906 14.0977C12.3092 14.4791 11.6908 14.4791 11.3093 14.0977L7.43124 10.2196C7.10429 9.89263 7.10429 9.36254 7.43124 9.03559C7.75819 8.70864 8.28828 8.70864 8.61523 9.03559L12 12.4203L19.888 4.53231Z" fill="#0077FF"/>
</g>
<defs>
<clipPath id="clip0_2414_4390">
<rect width="24" height="24" fill="white"/>
</clipPath>
</defs>
</svg>
