<svg width="24" height="24" viewBox="0 0 24 24" fill="none" xmlns="http://www.w3.org/2000/svg">
<g clip-path="url(#clip0_2414_4436)">
<path fill-rule="evenodd" clip-rule="evenodd" d="M6 4L0.5 10.5L12 22L23.5 10.5L18 4H6ZM12 6L14.5 9.5H9.5L12 6ZM15 11L12 18.5L9 11H15ZM17 9.5H20.5L18 6.5L17 9.5ZM3.5 9.5H7L6 6.5L3.5 9.5Z" fill="#0077FF"/>
<path d="M12.75 0.75C12.75 1.16421 12.4142 1.5 12 1.5C11.5858 1.5 11.25 1.16421 11.25 0.75C11.25 0.335786 11.5858 0 12 0C12.4142 0 12.75 0.335786 12.75 0.75Z" fill="#FF5E00"/>
<path d="M8 1.75C8 2.16421 7.66421 2.5 7.25 2.5C6.83579 2.5 6.5 2.16421 6.5 1.75C6.5 1.33579 6.83579 1 7.25 1C7.66421 1 8 1.33579 8 1.75Z" fill="#FF5E00"/>
<path d="M3.25 3.25C3.25 3.66421 2.91421 4 2.5 4C2.08579 4 1.75 3.66421 1.75 3.25C1.75 2.83579 2.08579 2.5 2.5 2.5C2.91421 2.5 3.25 2.83579 3.25 3.25Z" fill="#FF5E00"/>
<path d="M17.5 1.75C17.5 2.16421 17.1642 2.5 16.75 2.5C16.3358 2.5 16 2.16421 16 1.75C16 1.33579 16.3358 1 16.75 1C17.1642 1 17.5 1.33579 17.5 1.75Z" fill="#FF5E00"/>
<path d="M22.25 3.25C22.25 3.66421 21.9142 4 21.5 4C21.0858 4 20.75 3.66421 20.75 3.25C20.75 2.83579 21.0858 2.5 21.5 2.5C21.9142 2.5 22.25 2.83579 22.25 3.25Z" fill="#FF5E00"/>
</g>
<defs>
<clipPath id="clip0_2414_4436">
<rect width="24" height="24" fill="white"/>
</clipPath>
</defs>
</svg>
