<svg width="24" height="24" viewBox="0 0 24 24" fill="none" xmlns="http://www.w3.org/2000/svg">
<path fill-rule="evenodd" clip-rule="evenodd" d="M8.77035 2.5C8.59329 2.5 8.41941 2.54701 8.26648 2.63622L3.13071 5.63208C2.75499 5.85126 2.56404 6.28817 2.6584 6.71279L3.32598 9.71693C3.42766 10.1745 3.83347 10.5 4.30217 10.5H4.5C5.05228 10.5 5.5 10.9477 5.5 11.5V16.5C5.5 17.0523 5.95467 17.4872 6.48988 17.6234C7.90367 17.9833 9.01665 19.0963 9.37657 20.5101C9.51283 21.0453 9.94772 21.5 10.5 21.5H13.5C14.0523 21.5 14.4872 21.0453 14.6234 20.5101C14.9833 19.0963 16.0963 17.9833 17.5101 17.6234C18.0453 17.4872 18.5 17.0523 18.5 16.5V11.5C18.5 10.9477 18.9477 10.5 19.5 10.5H19.6978C20.1665 10.5 20.5723 10.1745 20.674 9.71693L21.3416 6.71279C21.436 6.28817 21.245 5.85126 20.8693 5.63208L15.7335 2.63622C15.5806 2.54701 15.4067 2.5 15.2297 2.5H8.77035ZM14.5 4C14.5 5.38071 13.3807 6.5 12 6.5C10.6193 6.5 9.5 5.38071 9.5 4H14.5ZM13.25 10.75C13.25 10.8832 13.2292 11.0115 13.1906 11.1319C13.3589 11.0475 13.5489 11 13.75 11C14.4404 11 15 11.5596 15 12.25C15 12.8606 14.5622 13.3689 13.9834 13.4783C14.1504 13.6908 14.25 13.9587 14.25 14.25C14.25 14.9404 13.6904 15.5 13 15.5C12.5911 15.5 12.2281 15.3037 12 15.0001C11.7719 15.3037 11.4089 15.5 11 15.5C10.3096 15.5 9.75 14.9404 9.75 14.25C9.75 13.9587 9.84961 13.6908 10.0166 13.4783C9.4378 13.3689 9 12.8606 9 12.25C9 11.5596 9.55964 11 10.25 11C10.4511 11 10.6411 11.0475 10.8094 11.1319C10.7708 11.0115 10.75 10.8832 10.75 10.75C10.75 10.0596 11.3096 9.5 12 9.5C12.6904 9.5 13.25 10.0596 13.25 10.75Z" fill="#0077FF"/>
<path d="M13.25 12.75C13.25 13.4404 12.6904 14 12 14C11.3096 14 10.75 13.4404 10.75 12.75C10.75 12.0596 11.3096 11.5 12 11.5C12.6904 11.5 13.25 12.0596 13.25 12.75Z" fill="#FF5E00"/>
</svg>
