<svg width="24" height="24" viewBox="0 0 24 24" fill="none" xmlns="http://www.w3.org/2000/svg">
<g clip-path="url(#clip0_2144_6882)">
<path fill-rule="evenodd" clip-rule="evenodd" d="M17.8814 15.4678C17.912 15.8845 17.6489 16.2606 17.2576 16.4073L3.85001 21.4352C3.04812 21.7359 2.26505 20.9528 2.56576 20.1509L7.59362 6.74332C7.74033 6.35209 8.11644 6.08899 8.53315 6.11961C13.5269 6.48652 17.5144 10.4741 17.8814 15.4678ZM10.0247 10.7344C10.7133 10.7344 11.2716 10.1761 11.2716 9.48749C11.2716 8.79885 10.7133 8.2406 10.0247 8.2406C9.33606 8.2406 8.77781 8.79885 8.77781 9.48749C8.77781 10.1761 9.33606 10.7344 10.0247 10.7344ZM14.7629 13.7269C14.7629 14.5533 14.093 15.2232 13.2666 15.2232C12.4403 15.2232 11.7704 14.5533 11.7704 13.7269C11.7704 12.9006 12.4403 12.2307 13.2666 12.2307C14.093 12.2307 14.7629 12.9006 14.7629 13.7269ZM8.77781 16.4701C8.77781 17.4342 7.99626 18.2157 7.03216 18.2157C6.06806 18.2157 5.28651 17.4342 5.28651 16.4701C5.28651 15.506 6.06806 14.7244 7.03216 14.7244C7.99626 14.7244 8.77781 15.506 8.77781 16.4701Z" fill="#0077FF"/>
<path d="M21.4994 14.1052C21.1871 7.83876 16.1617 2.81334 9.89527 2.50107C9.5203 2.48238 9.18096 2.7103 9.03461 3.05604C8.78318 3.65003 9.19643 4.31594 9.83203 4.42576C14.7984 5.28382 18.7166 9.20211 19.5747 14.1684C19.6845 14.804 20.3504 15.2173 20.9444 14.9659C21.2902 14.8195 21.5181 14.4802 21.4994 14.1052Z" fill="#FF5E00"/>
</g>
<defs>
<clipPath id="clip0_2144_6882">
<rect width="24" height="24" fill="white"/>
</clipPath>
</defs>
</svg>
