<svg width="24" height="24" viewBox="0 0 24 24" fill="none" xmlns="http://www.w3.org/2000/svg">
<g clip-path="url(#clip0_2144_6898)">
<path fill-rule="evenodd" clip-rule="evenodd" d="M11.2929 1.14641C11.6834 0.755885 12.3166 0.755885 12.7071 1.14641L17.0303 5.46963C17.3232 5.76253 17.3232 6.2374 17.0303 6.53029C16.7374 6.82319 16.2626 6.82319 15.9697 6.53029L12 2.56062L8.03033 6.53029C7.73744 6.82319 7.26256 6.82319 6.96967 6.53029C6.67678 6.2374 6.67678 5.76253 6.96967 5.46963L11.2929 1.14641Z" fill="#FF5E00"/>
<path fill-rule="evenodd" clip-rule="evenodd" d="M3 11L4.36073 19.1644C4.4411 19.6466 4.85829 20 5.34713 20H18.6529C19.1417 20 19.5589 19.6466 19.6393 19.1644L21 11H21.5C22.0523 11 22.5 10.5523 22.5 10V9C22.5 8.44772 22.0523 8 21.5 8H2.5C1.94772 8 1.5 8.44772 1.5 9V10C1.5 10.5523 1.94772 11 2.5 11H3ZM9.75 12C9.75 11.5858 9.41421 11.25 9 11.25C8.58579 11.25 8.25 11.5858 8.25 12V17C8.25 17.4142 8.58579 17.75 9 17.75C9.41421 17.75 9.75 17.4142 9.75 17V12ZM12.75 12C12.75 11.5858 12.4142 11.25 12 11.25C11.5858 11.25 11.25 11.5858 11.25 12V17C11.25 17.4142 11.5858 17.75 12 17.75C12.4142 17.75 12.75 17.4142 12.75 17V12ZM15.75 12C15.75 11.5858 15.4142 11.25 15 11.25C14.5858 11.25 14.25 11.5858 14.25 12V17C14.25 17.4142 14.5858 17.75 15 17.75C15.4142 17.75 15.75 17.4142 15.75 17V12Z" fill="#0077FF"/>
</g>
<defs>
<clipPath id="clip0_2144_6898">
<rect width="24" height="24" fill="white"/>
</clipPath>
</defs>
</svg>
