<svg width="24" height="24" viewBox="0 0 24 24" fill="none" xmlns="http://www.w3.org/2000/svg">
<path d="M18.2814 21.5921C16.5169 21.6225 15.0159 20.9767 13.1864 19.4301C12.7818 19.0883 10.5632 16.9115 8.24689 14.5882C3.88643 10.2069 3.54457 9.82313 3.09805 8.81848C2.81201 8.1836 2.59573 7.49988 2.47712 6.8929C2.38643 6.41848 2.38643 6.30685 2.47015 6.11151C2.60146 5.79635 2.74514 5.70364 3.73852 5.36817C5.33858 8.66153 8.09922 12.4577 11.7023 16.0607C13.876 18.2344 16.12 20.1015 18.2814 21.5921Z" fill="#0077FF"/>
<path d="M4.97672 4.95735L4.98875 4.95337L5.22596 4.49988C5.37945 4.19988 5.60271 3.90685 5.88875 3.65569C6.34922 3.23709 8.34457 1.71616 8.51201 1.65336C8.94457 1.4929 9.83759 1.89057 10.4167 2.50453C10.8353 2.94406 11.0236 3.26499 11.1911 3.84406C11.4422 4.73709 12.0841 5.27429 13.1097 5.46964L13.605 5.56732V5.06499C13.605 4.36732 13.7027 4.08825 14.0795 3.69755C14.8469 2.90918 16.1097 3.09755 16.626 4.06732C16.7585 4.32546 16.7795 4.4929 16.8004 5.41383C16.8353 6.89988 16.7725 7.01848 15.8167 7.26267C14.3515 7.63244 13.9539 9.97662 15.0143 12.0138C15.6771 13.2976 16.926 14.2255 18.1678 14.365C18.4469 14.3999 18.7399 14.4627 18.8236 14.5045C19.012 14.6022 19.1864 14.9301 19.1864 15.1743C19.1864 15.4743 19.2981 15.6208 20.1562 16.465C20.8399 17.1348 21.0213 17.358 21.2376 17.7906C21.726 18.7882 21.705 19.7092 21.1678 20.4906C20.9251 20.8471 20.6226 21.0984 20.2042 21.2716C17.7527 19.6895 15.1621 17.5965 12.6643 15.0987C9.26058 11.695 6.60865 8.11903 4.97672 4.95735Z" fill="#0077FF"/>
<path d="M17.0514 8.2606C16.9188 8.39316 16.8142 8.5606 16.8142 8.63735C16.8142 8.72805 16.7514 8.79084 16.6258 8.82572C16.3537 8.88851 16.0537 9.19549 16.0049 9.4606C15.977 9.60712 16.0049 9.77456 16.0816 9.93502C16.5351 10.8839 18.2026 10.228 18.377 9.042C18.4677 8.442 18.1468 8.0234 17.5956 8.0234C17.3374 8.0234 17.2468 8.06526 17.0514 8.2606Z" fill="#FF5E00"/>
<path d="M18.0002 10.5141C17.77 10.6746 17.6654 10.8141 17.6165 11.0373C17.5886 11.149 17.5258 11.2327 17.47 11.2327C17.1212 11.2327 16.8142 11.5955 16.8142 12.0001C16.8142 13.0606 18.4328 13.0187 18.9909 11.9373C19.3049 11.3373 19.2421 10.7932 18.8235 10.535C18.5444 10.3676 18.2305 10.3536 18.0002 10.5141Z" fill="#FF5E00"/>
</svg>
