<svg width="40" height="40" viewBox="0 0 40 40" xmlns="http://www.w3.org/2000/svg">
<rect width="40" height="40" rx="20" fill="white"/>
<path d="M27.2407 12.5862C26.7525 12.1337 24.7761 10.699 20.3766 10.6812C20.3766 10.6812 15.1854 10.3656 12.6375 12.6874C11.2266 14.0983 10.7324 16.1581 10.6789 18.712C10.6253 21.266 10.5598 26.0523 15.1735 27.3501V29.3326C15.1735 29.3326 15.1735 30.1363 15.6736 30.297C16.3106 30.4994 16.6856 29.8862 17.2988 29.2314C17.6322 28.8682 18.0966 28.3384 18.4418 27.9336C20.4048 28.1169 22.3845 27.9721 24.2998 27.5049C24.9368 27.2966 28.5444 26.8382 29.1338 22.0458C29.7589 17.1106 28.86 13.9911 27.2407 12.5862ZM27.7765 21.6946C27.2764 25.6892 24.3534 25.9392 23.8176 26.1119C22.1696 26.5181 20.4684 26.6647 18.7752 26.5465C18.7752 26.5465 16.7749 28.9277 16.1499 29.5826C16.1151 29.6237 16.071 29.6559 16.0214 29.6766C15.9717 29.6973 15.9178 29.7059 15.8641 29.7017C15.757 29.6719 15.7272 29.5469 15.7272 29.3623C15.7272 29.1778 15.7272 26.0702 15.7272 26.0702C11.8219 24.9808 12.0481 20.9088 12.0957 18.7775C12.1434 16.6463 12.5422 14.896 13.7329 13.7173C15.8701 11.7825 20.2814 12.0683 20.2814 12.0683C24.0021 12.0683 25.7881 13.2053 26.1989 13.5804C27.586 14.7591 28.2825 17.569 27.7765 21.6946Z" fill="#1A1A1A"/>
<path d="M22.1862 18.8489C22.1219 18.849 22.06 18.8243 22.0134 18.7799C21.9669 18.7356 21.9392 18.675 21.9361 18.6108C21.9518 18.4405 21.9306 18.2689 21.8739 18.1075C21.8173 17.9462 21.7266 17.799 21.608 17.6758C21.4894 17.5527 21.3456 17.4566 21.1865 17.3939C21.0274 17.3313 20.8567 17.3037 20.686 17.313C20.6196 17.309 20.5576 17.2789 20.5135 17.2292C20.4694 17.1795 20.4469 17.1144 20.4508 17.0481C20.4548 16.9817 20.4849 16.9197 20.5346 16.8756C20.5842 16.8315 20.6494 16.809 20.7157 16.8129C20.9492 16.8057 21.1816 16.8475 21.398 16.9356C21.6144 17.0237 21.8099 17.1561 21.972 17.3244C22.1341 17.4926 22.2591 17.693 22.3391 17.9125C22.419 18.132 22.4521 18.3658 22.4362 18.5989C22.4378 18.6317 22.4329 18.6646 22.4218 18.6955C22.4107 18.7265 22.3936 18.7549 22.3715 18.7792C22.3494 18.8036 22.3226 18.8233 22.2929 18.8373C22.2631 18.8513 22.2309 18.8593 22.1981 18.8608L22.1862 18.8489Z" fill="#1A1A1A"/>
<path d="M23.4661 19.2776C23.4333 19.2768 23.4009 19.2695 23.3709 19.2563C23.3408 19.243 23.3137 19.2239 23.291 19.2001C23.2684 19.1764 23.2506 19.1484 23.2388 19.1177C23.2269 19.0871 23.2212 19.0544 23.222 19.0216C23.2445 18.6394 23.1902 18.2565 23.0624 17.8956C22.9346 17.5347 22.7359 17.203 22.4779 16.9201C21.9089 16.3308 21.1299 15.9905 20.3109 15.9735C20.2753 15.9758 20.2396 15.9705 20.2062 15.9578C20.1728 15.9451 20.1425 15.9255 20.1173 15.9001C20.0922 15.8748 20.0727 15.8443 20.0603 15.8108C20.0479 15.7774 20.0428 15.7416 20.0454 15.706C20.048 15.6704 20.0582 15.6357 20.0753 15.6044C20.0923 15.573 20.116 15.5457 20.1445 15.5242C20.173 15.5027 20.2058 15.4876 20.2407 15.4799C20.2756 15.4722 20.3117 15.472 20.3466 15.4794C21.2921 15.5052 22.1898 15.9006 22.847 16.5808C23.4447 17.2443 23.7551 18.1177 23.7102 19.0097C23.7135 19.0437 23.7097 19.078 23.6989 19.1104C23.6882 19.1428 23.6707 19.1726 23.6477 19.1979C23.6247 19.2231 23.5967 19.2433 23.5654 19.257C23.5341 19.2707 23.5003 19.2777 23.4661 19.2776Z" fill="#1A1A1A"/>
<path d="M24.7699 19.7895C24.7036 19.7895 24.64 19.7632 24.5931 19.7163C24.5463 19.6694 24.5199 19.6058 24.5199 19.5395C24.5549 18.884 24.4539 18.2283 24.2234 17.6136C23.9929 16.9989 23.6378 16.4385 23.1804 15.9676C22.7448 15.5421 22.2289 15.2077 21.6626 14.9839C21.0963 14.76 20.4911 14.6512 19.8824 14.6638C19.816 14.6638 19.7524 14.6375 19.7056 14.5906C19.6587 14.5437 19.6323 14.4801 19.6323 14.4138C19.6323 14.3475 19.6587 14.2839 19.7056 14.237C19.7524 14.1901 19.816 14.1638 19.8824 14.1638C20.5551 14.1524 21.2234 14.2744 21.8487 14.5227C22.474 14.771 23.044 15.1407 23.5257 15.6104C24.0262 16.126 24.4163 16.7383 24.6722 17.4097C24.9281 18.0812 25.0444 18.7978 25.014 19.5157C25.014 19.582 24.9877 19.6456 24.9408 19.6925C24.8939 19.7394 24.8303 19.7657 24.764 19.7657L24.7699 19.7895Z" fill="#1A1A1A"/>
<path d="M20.7515 21.9327C20.8501 21.94 20.9492 21.9257 21.0418 21.8908C21.1343 21.8558 21.2181 21.801 21.2873 21.7303L21.6564 21.2659C21.7827 21.1269 21.9542 21.0369 22.1404 21.0118C22.3266 20.9868 22.5157 21.0283 22.6744 21.129C22.9902 21.3112 23.2962 21.5099 23.5912 21.7243C23.871 21.9327 24.4365 22.403 24.4365 22.409C24.5698 22.5167 24.6586 22.6698 24.686 22.8389C24.7135 23.0081 24.6777 23.1814 24.5854 23.3257C24.3828 23.6777 24.1255 23.9951 23.8233 24.2664C23.6053 24.4644 23.3343 24.5947 23.0435 24.6414C23.006 24.6478 22.9678 24.6478 22.9304 24.6414C22.8194 24.6431 22.7088 24.627 22.6029 24.5938C21.8609 24.3372 21.1469 24.0061 20.4717 23.6055C19.8432 23.2607 19.2457 22.8624 18.6857 22.4149C18.4044 22.1923 18.1361 21.9538 17.882 21.7005H17.8523C17.6005 21.443 17.3621 21.1728 17.1379 20.8909C16.6924 20.3294 16.2941 19.7321 15.9472 19.1049C15.5465 18.4306 15.2173 17.7164 14.965 16.9737C14.9298 16.866 14.9117 16.7535 14.9114 16.6403C14.9078 16.6027 14.9078 16.5648 14.9114 16.5272C14.9572 16.2378 15.0877 15.9685 15.2864 15.7533C15.5154 15.4065 15.7989 15.0989 16.1258 14.8424C16.2711 14.7497 16.4454 14.7137 16.6156 14.7411C16.7857 14.7685 16.9398 14.8576 17.0486 14.9913C17.0486 14.9913 17.5248 15.5866 17.7273 15.8366C17.9297 16.0866 18.1797 16.5212 18.3226 16.7534C18.4207 16.9143 18.4602 17.1042 18.4341 17.2909C18.4081 17.4776 18.3182 17.6495 18.1797 17.7773L17.7153 18.1405C17.6445 18.2108 17.5896 18.2956 17.5547 18.3892C17.5198 18.4827 17.5055 18.5827 17.5129 18.6822C17.7398 19.4507 18.1547 20.1504 18.7202 20.7179C19.2857 21.2855 19.9839 21.703 20.7515 21.9327Z" fill="#1A1A1A"/>
</svg>
