<svg width="40" height="40" viewBox="0 0 40 40" fill="none" xmlns="http://www.w3.org/2000/svg">
<rect width="40" height="40" rx="20" fill="white"/>
<path d="M26.9196 13.0666C25.1005 11.2242 22.6317 10.2222 20.0329 10.2222C14.673 10.2222 10.2876 14.5535 10.2876 19.9191C10.2876 21.6323 10.7424 23.2808 11.587 24.7676L10.2227 29.7777L15.3877 28.4201C16.817 29.1959 18.4087 29.5838 20.0329 29.5838C25.3928 29.5838 29.7782 25.2525 29.7782 19.8868C29.7782 17.3333 28.7712 14.909 26.9196 13.0666ZM20.0329 27.9676C18.5711 27.9676 17.1418 27.5797 15.9074 26.8363L15.6151 26.6747L12.5615 27.4828L13.3736 24.509L13.1787 24.2181C12.3666 22.9252 11.9443 21.4707 11.9443 19.9191C11.9443 15.4909 15.5826 11.8707 20.0329 11.8707C22.2094 11.8707 24.2234 12.7111 25.7502 14.2302C27.2769 15.7494 28.1215 17.7858 28.1215 19.9191C28.1215 24.3474 24.5158 27.9676 20.0329 27.9676Z" fill="#1A1A1A"/>
<path d="M24.4832 21.9231C24.2558 21.7939 23.0539 21.212 22.8265 21.1474C22.5991 21.0504 22.4367 21.0181 22.2743 21.2767C22.1119 21.5353 21.6571 22.0524 21.4947 22.2141C21.3647 22.3757 21.2023 22.408 20.9749 22.2787C20.7475 22.1494 19.9354 21.8908 19.0259 21.0827C18.3112 20.4363 17.8239 19.6605 17.6615 19.4019C17.5316 19.1433 17.6615 19.0141 17.759 18.9171C17.8564 18.8201 17.9864 18.6262 18.1163 18.4969C18.2462 18.3676 18.2787 18.2383 18.3437 18.109C18.4411 17.9474 18.3762 17.8181 18.3112 17.6888C18.2462 17.5595 17.759 16.3636 17.5641 15.8787C17.3692 15.3939 17.1743 15.4585 17.0118 15.4585C16.8819 15.4585 16.7195 15.4585 16.5571 15.4585C16.3946 15.4585 16.1348 15.5231 15.9074 15.7494C15.68 16.008 15.0628 16.5898 15.0628 17.7535C15.0628 18.9171 15.9399 20.0807 16.0698 20.2423C16.1997 20.404 17.7915 22.8605 20.2278 23.8949C20.8125 24.1534 21.2673 24.2827 21.6246 24.412C22.2093 24.606 22.7291 24.5736 23.1514 24.509C23.6062 24.4444 24.5807 23.9272 24.8081 23.3454C25.0355 22.7635 25.003 22.311 24.938 22.1817C24.873 22.1171 24.7106 22.0524 24.4832 21.9231Z" fill="#1A1A1A"/>
</svg>
