<svg width="48" height="48" viewBox="0 0 48 48" xmlns="http://www.w3.org/2000/svg">
<rect width="48" height="48" rx="16" fill="url(#paint0_linear_2097_6609)"/>
<g clip-path="url(#clip0_2097_6609)">
<path d="M24 24C22.9 24 22 23.1 22 22C22 20.9 22.9 20 24 20C25.1 20 26 20.9 26 22C26 23.1 25.1 24 24 24ZM30 22.2C30 18.57 27.35 16 24 16C20.65 16 18 18.57 18 22.2C18 24.3389 19.6292 27.1127 23.0021 30.3993C23.5579 30.9409 24.4421 30.9409 24.9979 30.3993C28.3708 27.1127 30 24.3389 30 22.2ZM24 14C28.2 14 32 17.22 32 22.2C32 25.3133 29.652 28.9631 24.9644 33.1576C24.4147 33.6494 23.5853 33.6494 23.0356 33.1576C18.348 28.9631 16 25.3133 16 22.2C16 17.22 19.8 14 24 14Z" />
</g>
<defs>
<linearGradient id="paint0_linear_2097_6609" x1="0" y1="0" x2="51.2224" y2="3.72835" gradientUnits="userSpaceOnUse">
<stop stop-color="#FAEAFC"/>
<stop offset="1" stop-color="#E8F6FF"/>
</linearGradient>
<clipPath id="clip0_2097_6609">
<rect width="24" height="24" fill="white" transform="translate(12 12)"/>
</clipPath>
</defs>
</svg>
