<svg width="48" height="48" viewBox="0 0 48 48" fill="none" xmlns="http://www.w3.org/2000/svg">
<rect width="48" height="48" rx="16" fill="url(#paint0_linear_2127_7432)"/>
<g clip-path="url(#clip0_2127_7432)">
<path fill-rule="evenodd" clip-rule="evenodd" d="M14 20.5C14 17.7386 16.2386 15.5 19 15.5H29C31.7614 15.5 34 17.7386 34 20.5V27.5C34 30.2614 31.7614 32.5 29 32.5H19C16.2386 32.5 14 30.2614 14 27.5V20.5ZM19 17.5C17.3431 17.5 16 18.8431 16 20.5V27.5C16 29.1569 17.3431 30.5 19 30.5H29C30.6569 30.5 32 29.1569 32 27.5V20.5C32 18.8431 30.6569 17.5 29 17.5H19Z" fill="#282828"/>
<path fill-rule="evenodd" clip-rule="evenodd" d="M18.3125 20.6839C18.4781 20.3042 18.9201 20.1306 19.2998 20.2961L23.5044 22.1294C23.8218 22.2678 24.1823 22.2683 24.5001 22.1309L28.7023 20.3139C29.0825 20.1495 29.524 20.3244 29.6884 20.7046C29.8528 21.0848 29.6779 21.5263 29.2977 21.6907L25.0954 23.5077C24.3963 23.81 23.6031 23.8088 22.9049 23.5044L18.7002 21.6711C18.3206 21.5056 18.147 21.0636 18.3125 20.6839Z" fill="#282828"/>
</g>
<defs>
<linearGradient id="paint0_linear_2127_7432" x1="0" y1="0" x2="51.2224" y2="3.72835" gradientUnits="userSpaceOnUse">
<stop stop-color="#FAEAFC"/>
<stop offset="1" stop-color="#E8F6FF"/>
</linearGradient>
<clipPath id="clip0_2127_7432">
<rect width="24" height="24" fill="white" transform="translate(12 12)"/>
</clipPath>
</defs>
</svg>
