<svg width="48" height="48" viewBox="0 0 48 48" fill="none" xmlns="http://www.w3.org/2000/svg">
<rect width="48" height="48" rx="16" fill="url(#paint0_linear_2117_7066)"/>
<g clip-path="url(#clip0_2117_7066)">
<path d="M23.99 14C18.47 14 14 18.48 14 24C14 29.52 18.47 34 23.99 34C29.52 34 34 29.52 34 24C34 18.48 29.52 14 23.99 14ZM24 32C19.58 32 16 28.42 16 24C16 19.58 19.58 16 24 16C28.42 16 32 19.58 32 24C32 28.42 28.42 32 24 32ZM23.78 19H23.72C23.32 19 23 19.32 23 19.72V24.44C23 24.79 23.18 25.12 23.49 25.3L27.64 27.79C27.98 27.99 28.42 27.89 28.62 27.55C28.83 27.21 28.72 26.76 28.37 26.56L24.5 24.26V19.72C24.5 19.32 24.18 19 23.78 19Z" fill="#282828"/>
</g>
<defs>
<linearGradient id="paint0_linear_2117_7066" x1="0" y1="0" x2="51.2224" y2="3.72835" gradientUnits="userSpaceOnUse">
<stop stop-color="#FAEAFC"/>
<stop offset="1" stop-color="#E8F6FF"/>
</linearGradient>
<clipPath id="clip0_2117_7066">
<rect width="24" height="24" fill="white" transform="translate(12 12)"/>
</clipPath>
</defs>
</svg>
