<svg width="16" height="16" viewBox="0 0 16 16" fill="none" xmlns="http://www.w3.org/2000/svg">
<path fill-rule="evenodd" clip-rule="evenodd" d="M8 16C12.4183 16 16 12.4183 16 8C16 3.58172 12.4183 0 8 0C3.58172 0 0 3.58172 0 8C0 12.4183 3.58172 16 8 16ZM7.33333 5.66667C7.33333 6.58714 6.58714 7.33333 5.66667 7.33333C4.74619 7.33333 4 6.58714 4 5.66667C4 4.74619 4.74619 4 5.66667 4C6.58714 4 7.33333 4.74619 7.33333 5.66667ZM12 10.3333C12 11.2538 11.2538 12 10.3333 12C9.41286 12 8.66667 11.2538 8.66667 10.3333C8.66667 9.41286 9.41286 8.66667 10.3333 8.66667C11.2538 8.66667 12 9.41286 12 10.3333ZM11.1381 5.80474C11.3984 5.54439 11.3984 5.12228 11.1381 4.86193C10.8777 4.60158 10.4556 4.60158 10.1953 4.86193L4.86193 10.1953C4.60158 10.4556 4.60158 10.8777 4.86193 11.1381C5.12228 11.3984 5.54439 11.3984 5.80474 11.1381L11.1381 5.80474Z" fill="#FF5E00"/>
</svg>
