<svg width="24" height="24" viewBox="0 0 24 24" fill="none" xmlns="http://www.w3.org/2000/svg">
<g clip-path="url(#clip0_2097_6584)">
<path d="M5 19C5 19.55 5.45 20 6 20H18C18.55 20 19 19.55 19 19C19 18.45 18.55 18 18 18H6C5.45 18 5 18.45 5 19Z" fill="#282828"/>
<path fill-rule="evenodd" clip-rule="evenodd" d="M12 3C12.5523 3 13 3.44772 13 4V14.5C13 15.0523 12.5523 15.5 12 15.5C11.4477 15.5 11 15.0523 11 14.5V4C11 3.44772 11.4477 3 12 3Z" fill="#282828"/>
<path fill-rule="evenodd" clip-rule="evenodd" d="M17.7071 8.79289C18.0976 9.18342 18.0976 9.81658 17.7071 10.2071L12.7071 15.2071C12.3166 15.5976 11.6834 15.5976 11.2929 15.2071C10.9024 14.8166 10.9024 14.1834 11.2929 13.7929L16.2929 8.79289C16.6834 8.40237 17.3166 8.40237 17.7071 8.79289Z" fill="#282828"/>
<path fill-rule="evenodd" clip-rule="evenodd" d="M6.29289 8.79289C6.68342 8.40237 7.31658 8.40237 7.70711 8.79289L12.7071 13.7929C13.0976 14.1834 13.0976 14.8166 12.7071 15.2071C12.3166 15.5976 11.6834 15.5976 11.2929 15.2071L6.29289 10.2071C5.90237 9.81658 5.90237 9.18342 6.29289 8.79289Z" fill="#282828"/>
</g>
<defs>
<clipPath id="clip0_2097_6584">
<rect width="24" height="24" fill="white"/>
</clipPath>
</defs>
</svg>
