<svg width="18" height="18" viewBox="0 0 18 18" fill="none" xmlns="http://www.w3.org/2000/svg">
<g clip-path="url(#clip0_1445_3832)">
<path d="M8.99978 16.5C12.4198 16.5 15.2473 13.95 15.6898 10.65C15.7573 10.17 15.3298 9.7425 14.8498 9.81C11.5498 10.2525 8.99978 13.08 8.99978 16.5ZM4.19978 7.6875C4.19978 8.7225 5.03979 9.5625 6.07479 9.5625C6.47229 9.5625 6.83229 9.4425 7.13979 9.2325L7.12478 9.375C7.12478 10.41 7.96478 11.25 8.99978 11.25C10.0348 11.25 10.8748 10.41 10.8748 9.375L10.8598 9.2325C11.1598 9.4425 11.5273 9.5625 11.9248 9.5625C12.9598 9.5625 13.7998 8.7225 13.7998 7.6875C13.7998 6.9375 13.3573 6.3 12.7273 6C13.3573 5.7 13.7998 5.0625 13.7998 4.3125C13.7998 3.2775 12.9598 2.4375 11.9248 2.4375C11.5273 2.4375 11.1673 2.5575 10.8598 2.7675L10.8748 2.625C10.8748 1.59 10.0348 0.75 8.99978 0.75C7.96478 0.75 7.12478 1.59 7.12478 2.625L7.13979 2.7675C6.83979 2.5575 6.47229 2.4375 6.07479 2.4375C5.03979 2.4375 4.19978 3.2775 4.19978 4.3125C4.19978 5.0625 4.64229 5.7 5.27228 6C4.64229 6.3 4.19978 6.9375 4.19978 7.6875ZM8.99978 4.125C10.0348 4.125 10.8748 4.965 10.8748 6C10.8748 7.035 10.0348 7.875 8.99978 7.875C7.96478 7.875 7.12478 7.035 7.12478 6C7.12478 4.965 7.96478 4.125 8.99978 4.125ZM2.30978 10.65C2.75228 13.95 5.57978 16.5 8.99978 16.5C8.99978 13.08 6.44978 10.2525 3.14978 9.81C2.66978 9.7425 2.24228 10.17 2.30978 10.65Z" fill="#282828"/>
</g>
<defs>
<clipPath id="clip0_1445_3832">
<rect width="18" height="18" fill="white"/>
</clipPath>
</defs>
</svg>
