<svg width="18" height="18" viewBox="0 0 18 18" fill="none" xmlns="http://www.w3.org/2000/svg">
<g clip-path="url(#clip0_1443_3818)">
<path d="M10.9875 3.73499L7.2375 2.42249C6.9225 2.30999 6.5775 2.30999 6.2625 2.41499L3.27 3.41999C2.6625 3.62999 2.25 4.2 2.25 4.845V13.7325C2.25 14.79 3.3075 15.51 4.29 15.1275L6.4875 14.2725C6.6525 14.205 6.84 14.205 7.005 14.265L10.755 15.5775C11.07 15.69 11.415 15.69 11.73 15.585L14.7225 14.58C15.33 14.3775 15.7425 13.8 15.7425 13.155V4.2675C15.7425 3.21 14.685 2.48999 13.7025 2.87249L11.505 3.72749C11.34 3.78749 11.16 3.79499 10.9875 3.73499ZM11.25 14.1675L6.75 12.585V3.83249L11.25 5.41499V14.1675Z" fill="#282828"/>
</g>
<defs>
<clipPath id="clip0_1443_3818">
<rect width="18" height="18" fill="white"/>
</clipPath>
</defs>
</svg>
