<svg width="20" height="22" viewBox="0 0 20 22" xmlns="http://www.w3.org/2000/svg">
<path fill-rule="evenodd" clip-rule="evenodd" d="M4.69813 5.99504C5.08866 6.38557 5.08866 7.01873 4.69813 7.40926L3.71174 8.39565C3.19569 8.9117 2.9309 9.62749 2.98687 10.3552C3.08144 11.5846 4.05832 12.5615 5.28777 12.656C6.01543 12.712 6.73122 12.4472 7.24727 11.9312L11.3347 7.84378C12.2636 6.91488 13.552 6.43826 14.8618 6.53902C17.0748 6.70925 18.8332 8.46762 19.0034 10.6806C19.1042 11.9904 18.6275 13.2788 17.6986 14.2077L16.7189 15.1874C16.3284 15.578 15.6953 15.578 15.3047 15.1874C14.9142 14.7969 14.9142 14.1637 15.3047 13.7732L16.2844 12.7935C16.8005 12.2775 17.0653 11.5617 17.0093 10.834C16.9147 9.60457 15.9378 8.6277 14.7084 8.53312C13.9807 8.47715 13.2649 8.74194 12.7489 9.25799L8.66149 13.3454C7.73259 14.2743 6.44417 14.7509 5.13437 14.6502C2.92137 14.4799 1.16299 12.7216 0.992763 10.5085C0.892009 9.19876 1.36863 7.91033 2.29753 6.98143L3.28392 5.99504C3.67444 5.60452 4.30761 5.60452 4.69813 5.99504Z" />
<path d="M9.86117 0.218121C10.2344 0.116326 10.5769 0.458813 10.4751 0.832062L8.81071 6.93484C8.7097 7.30522 8.24624 7.4283 7.97478 7.15683L3.5364 2.71845C3.26493 2.44698 3.38801 1.98353 3.75839 1.88251L9.86117 0.218121Z" />
<path d="M14.2415 20.8477C12.9723 22.1169 10.9145 22.1169 9.64526 20.8477C8.37606 19.5785 8.37606 17.5207 9.64526 16.2515C10.9145 14.9823 12.9723 14.9823 14.2415 16.2515C15.5107 17.5207 15.5107 19.5785 14.2415 20.8477Z" />
</svg>
