<svg width="24" height="24" viewBox="0 0 24 24" fill="none" xmlns="http://www.w3.org/2000/svg">
<path d="M3.25 15C3.25 12.7909 5.04086 11 7.25 11H16.75C18.9591 11 20.75 12.7909 20.75 15V18C20.75 19.1046 19.8546 20 18.75 20H5.25C4.14543 20 3.25 19.1046 3.25 18V15Z" fill="#0077FF"/>
<path d="M17.8171 13.4037C17.6692 13.1475 17.7748 12.8196 18.0445 12.6979L21.7086 11.0443C21.9427 10.9387 22.2188 11.0276 22.3473 11.2501L23.1448 12.6314C23.2732 12.8539 23.2122 13.1375 23.0036 13.2874L19.7395 15.6338C19.4993 15.8065 19.1625 15.734 19.0146 15.4778L17.8171 13.4037Z" fill="#0077FF"/>
<path fill-rule="evenodd" clip-rule="evenodd" d="M7.30025 4.80025C6.17757 5.92294 5.5 7.53788 5.5 9.5C5.5 9.91421 5.16421 10.25 4.75 10.25C4.33579 10.25 4 9.91421 4 9.5C4 7.18191 4.80733 5.17185 6.23959 3.73959C7.67185 2.30733 9.68191 1.5 12 1.5C14.3181 1.5 16.3281 2.30733 17.7604 3.73959C19.1927 5.17185 20 7.18191 20 9.5C20 9.91421 19.6642 10.25 19.25 10.25C18.8358 10.25 18.5 9.91421 18.5 9.5C18.5 7.53788 17.8224 5.92294 16.6997 4.80025C15.5771 3.67757 13.9621 3 12 3C10.0379 3 8.42294 3.67757 7.30025 4.80025Z" fill="#0077FF"/>
<path d="M17.2445 9.5H6.75586C7.99343 7.97477 9.88298 7 12.0002 7C14.1174 7 16.0069 7.97477 17.2445 9.5Z" fill="#0077FF"/>
<circle cx="12" cy="5.75" r="1.25" fill="#FF5E00"/>
</svg>
