<svg width="24" height="24" viewBox="0 0 24 24" fill="none" xmlns="http://www.w3.org/2000/svg">
<g clip-path="url(#clip0_2414_4396)">
<path d="M6.40459 2.45338C5.8257 2.59291 5.26076 3.03245 4.99572 3.56268C4.84228 3.86268 4.78649 4.56036 4.88413 4.93012C5.0585 5.57896 5.72806 6.23478 6.31392 6.33245C6.45342 6.35338 6.57896 6.38826 6.59291 6.41617C6.60686 6.4371 6.57896 6.66036 6.52316 6.91152C6.32787 7.85338 6.44644 9.16501 6.80912 10.065L6.97651 10.4697L6.7882 10.5115C5.0306 10.8952 3.08468 11.9836 2.58949 12.8487C2.24076 13.4697 2.40117 14.3697 2.95217 14.8301C3.6008 15.3813 4.38196 15.3534 5.10034 14.7604C5.52579 14.4115 6.20233 13.9929 6.25813 14.0487C6.27905 14.0697 6.21628 14.3069 6.11864 14.579C5.96519 15.0115 5.83965 15.458 5.70016 16.065C5.67226 16.1836 5.55369 16.3092 5.3584 16.4208C4.43776 16.965 3.85887 18.1999 4.04718 19.2255C4.39591 21.1231 6.38367 22.1418 8.0506 21.2836L8.4621 21.0743L8.88058 21.2208C10.3243 21.7022 13.6861 21.7022 15.1298 21.2208L15.5483 21.0743L15.9598 21.2836C17.6337 22.1487 19.6284 21.1092 19.9632 19.2045C20.1446 18.179 19.5657 16.958 18.652 16.4208C18.4497 16.3092 18.3381 16.1836 18.3102 16.065C18.2823 15.9045 17.8778 14.5371 17.7453 14.1464C17.7244 14.0836 17.7383 14.0278 17.7802 14.0278C17.8499 14.0278 18.5613 14.5022 19.1611 14.9487C19.5168 15.2069 20.1864 15.2976 20.584 15.1301C21.2256 14.858 21.5883 14.3138 21.5953 13.6092C21.5953 12.9883 21.3791 12.6325 20.6677 12.0743C19.6703 11.2999 18.6101 10.8185 17.2222 10.5115L17.0339 10.4697L17.2013 10.065C17.564 9.16501 17.6825 7.85338 17.4872 6.91152C17.4314 6.66036 17.4035 6.4371 17.4175 6.41617C17.4314 6.38826 17.557 6.35338 17.6965 6.33245C18.2823 6.23478 18.9519 5.57896 19.1263 4.93012C19.2309 4.53943 19.1681 3.86268 18.9937 3.5278C18.5125 2.59291 17.3617 2.17431 16.4131 2.58594C16.0714 2.73245 15.4228 3.33245 15.4228 3.50687C15.4228 3.54175 15.2763 3.47198 15.1019 3.35338C13.4001 2.17431 10.966 2.1185 9.15956 3.20687C8.8457 3.39524 8.58764 3.52082 8.58764 3.49291C8.58764 3.46501 8.44815 3.28361 8.27379 3.08826C7.80649 2.56501 7.03231 2.29989 6.40459 2.45338ZM9.94072 5.69059C10.0523 5.75338 10.1918 5.85803 10.2406 5.93478C10.3313 6.06036 10.3452 6.06036 10.7009 5.89989C11.517 5.52315 12.4864 5.52315 13.3025 5.89291L13.6582 6.06036L13.8465 5.85803C14.0697 5.6278 14.4324 5.5371 14.6625 5.65571C14.9555 5.80919 15.1438 6.0185 15.1856 6.24873C15.2344 6.52082 15.074 6.93943 14.8718 7.04408C14.7323 7.12082 14.7323 7.12082 14.9066 7.50454C15.4507 8.69059 15.2275 10.0022 14.2998 10.9859C13.3513 12.0045 11.8657 12.2836 10.6103 11.6766C10.1011 11.4325 9.36182 10.6859 9.12469 10.1766C8.72714 9.33245 8.71319 8.34873 9.10376 7.50454C9.27115 7.1278 9.27115 7.12082 9.14561 7.05105C8.9294 6.93943 8.77596 6.57664 8.81781 6.30454C8.86663 6.0185 8.96427 5.89292 9.25023 5.71152C9.50829 5.55803 9.67568 5.55105 9.94072 5.69059ZM11.2729 13.5464C11.789 13.6301 12.7724 13.5883 13.2118 13.4697C13.4489 13.3999 13.4978 13.4138 13.7698 13.6022C14.5579 14.1534 15.1786 15.1371 15.4228 16.2325C15.4925 16.5464 15.4925 16.5534 15.1856 16.8952C14.5788 17.565 14.3068 18.4441 14.4533 19.2325C14.4951 19.4418 14.5091 19.6371 14.4812 19.672C14.3556 19.8813 13.0932 20.0976 12.0052 20.0976C10.9241 20.0976 9.65476 19.8813 9.52921 19.679C9.50829 19.6441 9.52224 19.4348 9.55711 19.2115C9.68266 18.3813 9.4246 17.565 8.82478 16.8952C8.5179 16.5534 8.5179 16.5464 8.58764 16.2325C8.67831 15.8138 8.90848 15.2069 9.11771 14.8371C9.48737 14.1743 10.3731 13.365 10.6452 13.4348C10.7219 13.4557 11.0078 13.5045 11.2729 13.5464ZM7.43683 17.7883C8.08547 18.165 8.19009 19.0929 7.64607 19.6441C6.77425 20.5092 5.33748 19.679 5.65831 18.4929C5.86058 17.7325 6.74635 17.3836 7.43683 17.7883ZM17.829 17.7883C18.7078 18.2976 18.5055 19.6929 17.5221 19.958C16.6294 20.1952 15.8133 19.3859 16.0505 18.4929C16.2527 17.7325 17.1385 17.3836 17.829 17.7883Z" fill="#0077FF"/>
<circle cx="12" cy="7.25" r="0.75" fill="#FF5E00"/>
</g>
<defs>
<clipPath id="clip0_2414_4396">
<rect width="24" height="24" fill="white"/>
</clipPath>
</defs>
</svg>
