<svg width="24" height="24" viewBox="0 0 24 24" fill="none" xmlns="http://www.w3.org/2000/svg">
<g clip-path="url(#clip0_2414_4384)">
<path d="M8.33781 3.30704C8.2192 3.35587 7.98897 3.55122 7.82851 3.73262C7.15176 4.50006 7.01223 6.02099 7.49362 7.40238C7.89827 8.57448 8.77037 9.41866 9.56572 9.41866C11.0518 9.41169 11.6936 6.81634 10.7099 4.77215C10.1378 3.58611 9.12618 2.9582 8.33781 3.30704Z" fill="#0077FF"/>
<path d="M14.5471 3.3768C14.3448 3.4675 14.0587 3.69076 13.8634 3.90704C12.482 5.44192 12.475 8.4768 13.8494 9.2582C14.4355 9.59308 15.0843 9.40471 15.7122 8.72797C16.4029 7.98146 16.7587 6.99773 16.7727 5.79076C16.7797 4.83494 16.6053 4.22099 16.1727 3.73262C15.6913 3.18145 15.189 3.06983 14.5471 3.3768Z" fill="#0077FF"/>
<path d="M4.03316 9.7675C3.31455 10.1582 3.04246 11.0442 3.31455 12.0977C3.69827 13.5559 5.18432 15.028 6.38432 15.1256C6.87967 15.1675 7.06106 15.1117 7.36106 14.8466C7.89827 14.3791 8.11455 13.521 7.92618 12.628C7.76572 11.8535 7.44479 11.2884 6.83781 10.6675C6.14013 9.96285 5.56804 9.66983 4.81455 9.64192C4.40292 9.62797 4.23548 9.65587 4.03316 9.7675Z" fill="#0077FF"/>
<path d="M18.4192 9.78843C16.8843 10.4233 15.8029 12.1675 16.0401 13.6256C16.1378 14.2117 16.3052 14.5605 16.6401 14.8466C16.9401 15.1117 17.1215 15.1675 17.6099 15.1256C18.8657 15.021 20.4146 13.4442 20.7215 11.9512C20.882 11.2047 20.7355 10.4861 20.3448 10.0605C19.9332 9.60704 19.1378 9.49541 18.4192 9.78843Z" fill="#0077FF"/>
<path d="M11.4704 12.0628C11.1006 12.1605 10.5285 12.5093 10.2774 12.8024C9.90761 13.221 9.70528 13.7233 9.62854 14.3721C9.54481 15.1326 9.3704 15.4047 8.54714 16.1233C8.17737 16.4372 7.75877 16.8838 7.60528 17.107C6.99133 18.0279 7.089 19.1163 7.85644 19.9465C8.34481 20.4768 8.89598 20.7349 9.62854 20.7768L10.1518 20.8047L10.8983 20.414C11.9169 19.8838 12.0843 19.8838 13.103 20.414L13.8495 20.8047L14.3727 20.7768C15.3564 20.721 16.1867 20.1628 16.5774 19.2977C16.7378 18.9558 16.7727 18.7675 16.7727 18.3489C16.7797 17.8884 16.7448 17.7558 16.5425 17.3372C16.3471 16.9465 16.1448 16.7024 15.475 16.0535C15.0146 15.607 14.589 15.1535 14.5332 15.0349C14.4704 14.9233 14.4006 14.6024 14.3657 14.3163C14.2192 13.0326 13.3192 12.1047 12.1611 12.0349C11.896 12.021 11.589 12.0279 11.4704 12.0628Z" fill="#0077FF"/>
</g>
<defs>
<clipPath id="clip0_2414_4384">
<rect width="24" height="24" fill="white"/>
</clipPath>
</defs>
</svg>
