<svg width="24" height="24" viewBox="0 0 24 24" fill="none" xmlns="http://www.w3.org/2000/svg">
<g clip-path="url(#clip0_2414_4416)">
<path fill-rule="evenodd" clip-rule="evenodd" d="M12 21.5C17.2467 21.5 21.5 17.2467 21.5 12C21.5 6.75329 17.2467 2.5 12 2.5C6.75329 2.5 2.5 6.75329 2.5 12C2.5 17.2467 6.75329 21.5 12 21.5ZM11.1744 6.07674C11.5651 6.18837 11.9488 6.60698 12.0884 7.08837C12.2209 7.54186 12.193 7.89768 11.9488 9.16047C11.8651 9.60698 11.8093 9.9907 11.8233 10.0116C11.8233 10.0116 15.9884 10.0116 16.1767 10.2C16.4767 10.3674 16.6791 10.6535 16.7558 11.0023C16.8047 11.2395 16.0233 15.3209 15.8488 15.7395C15.8 15.8581 15.6395 16.0465 15.493 16.1581C15.2907 16.3605 12.6465 16.3605 12.6465 16.3605C9.76512 16.3605 9.71628 16.3535 9.07442 15.8651C8.8093 15.6628 8.71163 15.6279 8.38372 15.6279H8V10.3953H8.3C8.67674 10.3953 9.08837 10.2 9.3814 9.89302C9.57674 9.6907 9.67442 9.44651 9.98837 8.38605C10.3163 7.31163 10.3721 7.03953 10.3721 6.56512V6H10.6372C10.7767 6 11.0209 6.03488 11.1744 6.07674Z" fill="#0077FF"/>
</g>
<defs>
<clipPath id="clip0_2414_4416">
<rect width="24" height="24" fill="white"/>
</clipPath>
</defs>
</svg>
