<svg width="24" height="24" viewBox="0 0 24 24" fill="none" xmlns="http://www.w3.org/2000/svg">
<g clip-path="url(#clip0_2144_6890)">
<path fill-rule="evenodd" clip-rule="evenodd" d="M5 7H19C20.1046 7 21 7.89543 21 9V21C21 22.1046 20.1046 23 19 23H5C3.89543 23 3 22.1046 3 21V9C3 7.89543 3.89543 7 5 7ZM8.75 9C8.75 8.58579 8.41421 8.25 8 8.25C7.58579 8.25 7.25 8.58579 7.25 9C7.25 11.6234 9.37665 13.75 12 13.75C14.6234 13.75 16.75 11.6234 16.75 9C16.75 8.58579 16.4142 8.25 16 8.25C15.5858 8.25 15.25 8.58579 15.25 9C15.25 10.7949 13.7949 12.25 12 12.25C10.2051 12.25 8.75 10.7949 8.75 9Z" fill="#0077FF"/>
<path fill-rule="evenodd" clip-rule="evenodd" d="M7.25 5C7.25 2.37665 9.37665 0.25 12 0.25C14.6234 0.25 16.75 2.37665 16.75 5C16.75 5.41421 16.4142 5.75 16 5.75C15.5858 5.75 15.25 5.41421 15.25 5C15.25 3.20507 13.7949 1.75 12 1.75C10.2051 1.75 8.75 3.20507 8.75 5C8.75 5.41421 8.41421 5.75 8 5.75C7.58579 5.75 7.25 5.41421 7.25 5Z" fill="#FF5E00"/>
</g>
<defs>
<clipPath id="clip0_2144_6890">
<rect width="24" height="24" fill="white"/>
</clipPath>
</defs>
</svg>
