<svg width="24" height="24" viewBox="0 0 24 24" fill="none" xmlns="http://www.w3.org/2000/svg">
<g clip-path="url(#clip0_2414_4371)">
<path d="M7.62561 2.51144C7.38841 2.65098 7.18608 2.97191 7.18608 3.20214C7.18608 3.56493 6.75352 4.63935 6.02794 6.06958C5.54654 7.01144 5.15585 7.89051 5.04422 8.26726C4.86282 8.86726 4.84887 8.95796 4.85585 10.3952C4.86282 12.5161 5.07213 13.6812 5.99306 16.6882C6.49538 18.3277 6.99771 20.0649 7.11631 20.5812C7.28375 21.3207 7.52794 21.5789 8.03724 21.5789C8.28143 21.5789 8.36515 21.537 8.5605 21.3277C8.72794 21.1394 8.79073 21.0068 8.79073 20.8394C8.79073 20.5603 8.21864 18.4463 7.5698 16.3324C6.80934 13.8277 6.54422 12.5998 6.44654 11.037L6.39771 10.3114L6.80934 10.5417C8.90236 11.6998 9.91399 12.4812 10.6396 13.4998C11.2745 14.3998 11.2326 14.0719 11.2326 17.8114C11.2326 21.0207 11.2396 21.1254 11.3721 21.2998C11.6791 21.6905 12.321 21.6905 12.6279 21.2998C12.7605 21.1254 12.7675 21.0207 12.7675 17.8114C12.7675 14.5812 12.7675 14.4975 12.914 14.2114C13.4861 13.0812 14.6442 11.9998 16.2907 11.058C16.6745 10.8347 17.1279 10.5766 17.2954 10.4859L17.6024 10.3045L17.5535 11.03C17.4419 12.6626 17.2326 13.6603 16.3954 16.43C15.6279 18.9975 15.2791 20.2673 15.2303 20.6928C15.1954 21.0277 15.2093 21.0696 15.4326 21.3138C15.6349 21.537 15.7186 21.5789 15.9628 21.5789C16.4721 21.5789 16.7163 21.3207 16.8838 20.5812C17.0024 20.058 17.5047 18.3068 18.007 16.6742C18.907 13.758 19.1512 12.4045 19.1442 10.3254C19.1442 8.97889 19.1303 8.86028 18.9558 8.26726C18.8442 7.88354 18.4605 7.0254 17.9721 6.06958C17.2396 4.61842 16.814 3.56493 16.814 3.18819C16.814 2.95796 16.5698 2.60214 16.3186 2.47656C15.914 2.26028 15.3489 2.5254 15.2372 2.97889C15.1675 3.25796 15.3768 4.24168 15.6768 4.98819C15.8093 5.33005 16.1721 6.07656 16.4791 6.64168C16.9186 7.45796 17.4419 8.644 17.4419 8.8254C17.4419 8.89517 16.221 9.23005 15.4954 9.35563C14.3791 9.544 12.2861 9.62772 10.6465 9.55098C9.16748 9.48121 8.00934 9.31377 7.13027 9.0347C6.57213 8.86028 6.55817 8.84633 6.60701 8.66493C6.69771 8.28121 7.05352 7.50679 7.52794 6.64168C8.28143 5.26726 8.79073 3.87191 8.79073 3.18819C8.79073 2.89517 8.61631 2.6161 8.34422 2.48354C8.03724 2.33703 7.89771 2.344 7.62561 2.51144Z" fill="#0077FF"/>
<path d="M11.707 7.44396C11.4628 7.7021 11.3582 7.98117 11.4349 8.1835C11.4977 8.33698 11.9163 8.79047 12 8.79047C12.0838 8.79047 12.5024 8.33698 12.5652 8.1835C12.6 8.08582 12.5931 7.94629 12.5512 7.82768C12.4605 7.5835 12.1465 7.25559 12 7.25559C11.9372 7.25559 11.8047 7.33931 11.707 7.44396Z" fill="#0077FF"/>
</g>
<defs>
<clipPath id="clip0_2414_4371">
<rect width="24" height="24" fill="white"/>
</clipPath>
</defs>
</svg>
