<svg width="48" height="48" viewBox="0 0 48 48" fill="none" xmlns="http://www.w3.org/2000/svg">
<rect width="48" height="48" rx="16" fill="url(#paint0_linear_2117_7029)"/>
<g clip-path="url(#clip0_2117_7029)">
<path d="M23.9992 16.929L21.8779 19.0504C21.489 19.4393 21.489 20.0757 21.8779 20.4646C22.2668 20.8535 22.9032 20.8535 23.2921 20.4646L25.4134 18.3433C26.5801 17.1765 28.4893 17.1765 29.656 18.3433C30.8228 19.51 30.8228 21.4192 29.656 22.5859L27.5347 24.7072C27.1458 25.0961 27.1458 25.7325 27.5347 26.1214C27.9236 26.5103 28.56 26.5103 28.9489 26.1214L31.0702 24.0001C33.0219 22.0485 33.0219 18.8807 31.0702 16.929C29.1186 14.9774 25.9508 14.9774 23.9992 16.929ZM21.1708 26.8285C21.5597 27.2174 22.1961 27.2174 22.585 26.8285L26.8276 22.5859C27.2165 22.197 27.2165 21.5606 26.8276 21.1717C26.4387 20.7828 25.8023 20.7828 25.4134 21.1717L21.1708 25.4143C20.7818 25.8032 20.7818 26.4396 21.1708 26.8285ZM24.7063 27.5356L22.585 29.657C21.4182 30.8237 19.5091 30.8237 18.3423 29.657C17.1756 28.4902 17.1756 26.5811 18.3423 25.4143L20.4636 23.293C20.8526 22.9041 20.8526 22.2677 20.4636 21.8788C20.0747 21.4899 19.4383 21.4899 19.0494 21.8788L16.9281 24.0001C14.9765 25.9517 14.9765 29.1196 16.9281 31.0712C18.8797 33.0228 22.0476 33.0228 23.9992 31.0712L26.1205 28.9499C26.5094 28.5609 26.5094 27.9246 26.1205 27.5356C25.7316 27.1467 25.0952 27.1467 24.7063 27.5356Z" fill="#282828"/>
</g>
<defs>
<linearGradient id="paint0_linear_2117_7029" x1="0" y1="0" x2="51.2224" y2="3.72835" gradientUnits="userSpaceOnUse">
<stop stop-color="#FAEAFC"/>
<stop offset="1" stop-color="#E8F6FF"/>
</linearGradient>
<clipPath id="clip0_2117_7029">
<rect width="24" height="24" fill="white" transform="translate(12 12)"/>
</clipPath>
</defs>
</svg>
