<svg width="48" height="48" viewBox="0 0 48 48" fill="none" xmlns="http://www.w3.org/2000/svg">
<rect width="48" height="48" rx="16" fill="url(#paint0_linear_2117_7068)"/>
<g clip-path="url(#clip0_2117_7068)">
<path fill-rule="evenodd" clip-rule="evenodd" d="M23.6056 14.0869C23.8654 13.9709 24.1622 13.971 24.4219 14.0873L33.4089 18.1113C33.7688 18.2725 34.0004 18.6301 34.0002 19.0245C34.0001 19.4189 33.7681 19.7763 33.408 19.9371L24.395 23.9621C24.1352 24.0781 23.8382 24.078 23.5785 23.9616L14.5915 19.9366C14.2316 19.7755 14 19.4178 14.0002 19.0234C14.0005 18.6291 14.2325 18.2716 14.5926 18.1109L23.6056 14.0869ZM17.4499 19.0254L23.9878 21.9536L30.5505 19.0228L24.0127 16.0954L17.4499 19.0254ZM14.0874 23.5918C14.3128 23.0876 14.9043 22.8617 15.4084 23.0871L23.9909 26.9248L32.593 23.0868C33.0974 22.8617 33.6887 23.0882 33.9137 23.5925C34.1387 24.0969 33.9123 24.6882 33.4079 24.9132L24.3979 28.9332C24.1384 29.049 23.8418 29.0489 23.5823 28.9329L14.592 24.9129C14.0879 24.6874 13.8619 24.096 14.0874 23.5918ZM33.9137 28.5725C34.1387 29.0769 33.9123 29.6682 33.4079 29.8932L24.3979 33.9132C24.1384 34.029 23.8418 34.0289 23.5823 33.9129L14.592 29.8929C14.0879 29.6674 13.8619 29.076 14.0874 28.5718C14.3128 28.0676 14.9043 27.8416 15.4084 28.0671L23.9909 31.9048L32.593 28.0668C33.0974 27.8417 33.6887 28.0682 33.9137 28.5725Z" fill="#282828"/>
</g>
<defs>
<linearGradient id="paint0_linear_2117_7068" x1="0" y1="0" x2="51.2224" y2="3.72835" gradientUnits="userSpaceOnUse">
<stop stop-color="#FAEAFC"/>
<stop offset="1" stop-color="#E8F6FF"/>
</linearGradient>
<clipPath id="clip0_2117_7068">
<rect width="24" height="24" fill="white" transform="translate(12 12)"/>
</clipPath>
</defs>
</svg>
