<svg width="143" height="40" viewBox="0 0 143 40" fill="none" xmlns="http://www.w3.org/2000/svg">
<g clip-path="url(#clip0_1440_2805)">
<path fill-rule="evenodd" clip-rule="evenodd" d="M25.8243 13.9998C30.2296 10.8718 33.5548 12.1233 35.3979 13.9668C37.7043 16.2742 36.9029 21.0417 34.1195 23.2749C31.9109 25.0461 28.6881 26.1678 25.6744 26.2382C26.0555 28.5127 27.6729 29.9838 29.9737 29.9591C31.3791 29.9445 33.2807 29.0415 33.9478 27.3517C35.2069 28.3471 35.439 30.5483 34.4841 31.8209C33.9213 32.572 32.9115 33.2719 31.402 33.4732C27.7542 33.9608 23.5691 32.3762 21.981 28.3196C20.1095 23.5411 21.9892 16.7234 25.8243 13.9998ZM25.4195 24.3618C25.276 20.6913 26.4566 16.9201 28.9138 15.6328C32.3587 13.8287 33.5283 18.5916 31.9786 20.5824C30.7532 22.1551 28.9677 23.618 25.4195 24.3618Z" fill="#AED0E5"/>
<path d="M39.7331 11.7902C40.1644 9.90738 43.7912 9.09679 45.2057 9.87445C43.8323 14.8258 42.9423 20.0517 42.4196 21.6317C43.5235 19.0599 45.023 13.6456 48.5703 13.6456C53.3941 13.6456 51.5227 19.7049 50.9296 22.0653C52.4712 18.6135 54.063 13.3172 57.677 13.7929C60.6257 14.1799 60.3214 17.6922 59.5721 21.5347C58.9955 24.488 58.1567 27.637 58.3266 29.7138C58.4655 31.4064 58.9105 32.689 59.7055 33.485C60.421 34.2023 61.4289 34.5179 62.6223 34.5115C63.081 36.914 59.8718 38.1354 57.4851 36.8371C55.9737 36.0137 54.9831 34.1318 54.8552 31.0514C54.6441 25.9802 56.9185 21.0324 55.8001 19.93C55.0544 19.1953 53.6417 20.5055 52.9235 22.1285C51.1572 26.1156 51.1553 27.9243 49.6988 30.2756C48.7503 31.8062 45.4863 32.5225 45.7412 30.4274C46.0766 28.5528 46.5928 24.7057 47.2818 21.6866C47.7945 19.4378 47.8319 18.0874 46.549 18.4159C44.8018 18.8632 41.7398 25.8685 41.1157 31.3377C40.8955 33.2636 36.6345 34.7869 36.7433 32.1996C36.8392 29.9316 37.2422 26.4687 37.7585 22.9153C38.367 18.7287 39.1328 14.4169 39.7331 11.7902Z" fill="#AED0E5"/>
<path d="M74.9833 22.0607C73.4053 21.7405 72.2 19.6152 72.9246 17.7223C73.7278 15.6244 76.2197 15.0224 77.4697 17.4194C80.3262 22.8951 77.7667 31.6066 73.9142 35.4519C72.5335 36.8297 70.9636 37.5626 69.2192 37.5443C64.5727 37.4939 61.6504 32.7713 61.4987 27.5244C61.3982 24.0588 62.1895 20.3992 63.9677 17.575C66.0539 14.264 69.7574 12.3885 73.0745 13.039C73.5359 14.9602 72.7089 17.1495 70.9865 18.0379C69.2576 18.5914 67.96 20.2336 67.1532 22.283C66.3975 24.2006 66.0713 26.4741 66.2193 28.5445C66.4395 31.6194 67.4511 34.1729 69.2805 34.494C71.6645 34.9121 73.1896 33.1098 74.0805 30.6588C75.0976 27.8602 75.2876 24.2162 74.9833 22.0607Z" fill="#AED0E5"/>
<path d="M81.0932 16.2045C81.297 14.5979 82.2372 13.7352 83.3292 13.3171C84.8506 12.7343 86.6681 13.0115 87.2064 13.3409C86.7175 14.0216 85.4345 21.5044 84.8982 23.2208C85.3916 22.0698 86.1327 20.0324 87.2255 18.4048C88.8356 16.0078 91.1557 14.748 92.7822 15.1542C94.0706 15.4753 94.9232 16.844 94.6427 19.521C94.3868 21.961 92.8032 25.8584 92.5428 29.3313C92.2239 33.5929 94.2114 34.5343 96.5662 34.0823C96.8668 35.8902 95.8708 37.1536 94.4846 37.4702C93.6375 37.6641 92.6442 37.5049 91.7131 36.9011C87.9794 34.4785 89.0467 29.4557 89.9559 25.8502C91.2562 20.6893 89.1024 20.3215 87.2849 22.9079C86.5548 23.9454 85.8841 25.3863 85.2975 26.895C84.0081 30.2133 83.7267 32.5151 82.8623 35.6971C82.2674 37.8846 78.3107 38.0877 78.6022 35.7959L81.0932 16.2045Z" fill="#AED0E5"/>
<path d="M107.789 33.9516C106.371 36.635 104.473 37.9808 102.155 37.817C98.6242 37.5664 96.7126 34.5244 96.008 30.9453C95.0842 26.2446 96.5216 20.4378 99.7381 17.1927C101.207 15.7106 103.437 14.61 105.553 14.8433C106.91 14.9924 108.435 15.6904 108.975 17.1863L109.387 14.437C111.443 13.2175 114.238 14.6685 113.949 16.889C113.488 20.4488 112.801 23.5118 112.222 26.9747C111.834 29.293 111.223 32.4494 112.637 34.0358C113.224 34.6954 114.107 35.2965 115.607 35.0294C115.635 37.0778 114.309 38.0403 112.502 38.0586C110.663 38.0778 108.6 36.8454 107.789 33.9516ZM108.434 22.9565C108.558 20.7461 106.882 19.5842 105.274 19.6089C103.167 19.6419 100.922 21.4112 99.8806 25.4185C98.8563 29.3571 99.6741 33.7083 102.229 34.6314C104.486 35.4475 107.215 32.6607 107.638 29.2464L108.434 22.9565Z" fill="#AED0E5"/>
<path d="M96.8464 14.5083C94.1973 14.4736 90.2242 13.3501 89.1588 11.4883C88.4963 10.331 88.701 8.3676 89.6732 6.1801C92.6165 7.87174 96.9743 9.23766 102.931 8.52497C110.944 7.56616 121.879 1.06496 128.614 9.54964C131.04 12.6063 131.988 17.5238 131.389 22.155C130.78 26.863 128.244 31.657 124.132 33.334C117.761 35.9314 114.268 30.0807 114.537 24.3599C114.639 22.1925 115.241 19.8275 116.596 17.576C118.942 13.674 124.507 12.4846 126.367 14.7709C126.995 15.5422 127.442 16.6419 127.165 18.1661C126.853 19.8906 125.93 20.3417 125.741 19.79C124.844 17.1615 122.91 17.1414 121.137 18.6546C118.881 20.5805 118.717 24.2702 119.545 27.1338C120.523 30.5198 123.427 32.0202 126.509 27.6782C129.576 23.3581 130.104 15.0856 125.837 11.3739C122.215 8.22214 116.988 9.24498 111.509 10.9284C106.488 12.47 101.254 14.566 96.8464 14.5083Z" fill="#AED0E5"/>
<path d="M135.81 17.9933C135.989 15.2642 138.66 15.5643 138.997 17.5166C139.103 18.1269 138.932 18.824 138.385 19.4059C139.1 20.1305 139.844 20.4461 140.521 20.4461C141.983 20.447 143.131 18.9795 142.988 16.9814C142.837 14.8891 141.305 12.6357 138.03 12.6897C135.437 12.7327 133.476 14.1983 132.795 16.2495C130.859 22.081 135.882 24.3069 134.8 28.9646C134.392 30.7221 133.168 32.1576 131.5 33.2271C127.885 35.5454 122.179 36.1465 118.153 34.593C116.955 37.3889 120.625 38.3688 124.342 38.5024C128.283 38.6432 132.844 38.1849 136.184 35.7275C137.486 34.7696 138.516 33.5318 139.172 32.1475C142.379 25.3792 135.514 22.5128 135.81 17.9933Z" fill="#AED0E5"/>
<path d="M16.2578 33.528C14.9557 36.0001 11.1279 38.0979 7.5943 38.2763C5.34641 38.3907 2.99892 37.5911 1.57709 36.3688C-0.13076 34.9004 -0.352807 32.8227 1.12203 30.9883C3.18716 28.4193 8.6223 26.4139 13.3017 28.713C14.4248 25.5328 14.793 19.1158 15.4884 15.6154C10.8656 16.6694 6.10028 16.2019 2.2414 13.7097C0.901807 12.8451 2.19937 9.33104 2.80338 8.43536C6.50051 12.0675 11.2677 12.8753 16.0504 12.3602C16.8024 9.44998 18.1265 5.74284 20.3963 3.10247C23.2171 -0.179236 27.383 -0.630276 29.9928 0.692654C31.8852 1.65146 32.9598 3.54345 32.1127 5.96333C31.0372 9.03553 24.8711 12.4078 20.898 13.9265C19.955 19.21 19.4469 27.38 17.7564 30.5757C23.5589 34.0331 31.6239 35.3532 39.1177 34.7467C44.011 34.3514 48.4383 33.0898 51.9371 30.8529C52.4534 31.3927 52.839 32.196 53.0894 33.0477C53.9173 35.872 52.2588 37.4749 49.7276 38.3541C44.8225 40.0585 38.3438 40.3751 32.0561 39.4959C26.0846 38.6606 20.3789 36.3605 16.2578 33.528ZM21.099 11.3383C24.4069 10.0419 26.8165 7.75011 27.6453 5.90569C28.8953 3.11071 27.2633 1.51239 25.73 1.98356C23.2391 2.75024 21.5815 8.15266 21.099 11.3383ZM12.4181 31.2042C8.95035 28.9673 3.96661 31.11 3.67603 33.0962C3.42657 34.8043 6.00159 35.7576 8.44137 35.0724C9.93722 34.6524 11.7063 32.9443 12.4181 31.2042Z" fill="#AED0E5"/>
</g>
<defs>
<clipPath id="clip0_1440_2805">
<rect width="142.857" height="40" fill="white" transform="translate(0.142578)"/>
</clipPath>
</defs>
</svg>
