<svg width="200" height="48" viewBox="0 0 200 48" xmlns="http://www.w3.org/2000/svg">
<g clip-path="url(#clip0_2004_10426)">
<path d="M43.5754 24.025C43.5754 34.875 34.7754 43.675 23.9254 43.675C13.0754 43.675 4.27539 34.875 4.27539 24.025C4.27539 13.175 13.0754 4.375 23.9254 4.375C34.7754 4.375 43.5754 13.175 43.5754 24.025Z" fill="url(#paint0_radial_2004_10426)"/>
<path opacity="0.3" d="M28.325 14.575C29.25 18.3 26.475 22.15 22.15 23.225C17.825 24.275 13.6 22.15 12.675 18.425C11.75 14.7 14.525 10.85 18.85 9.775C23.175 8.7 27.4 10.85 28.325 14.575Z" fill="url(#paint1_linear_2004_10426)"/>
<path opacity="0.2" d="M43.5502 24.025C43.5502 34.875 34.7502 43.675 23.9002 43.675C15.9002 43.675 9.02519 38.9 5.9502 32.05C8.4002 33.15 11.1002 33.75 13.9752 33.75C24.8252 33.75 33.6252 24.95 33.6252 14.1C33.6252 11.25 33.0252 8.525 31.9252 6.075C38.7752 9.15 43.5502 16.025 43.5502 24.025Z" fill="#358CCB"/>
<path opacity="0.2" d="M43.55 24.025C43.55 34.875 34.75 43.675 23.9 43.675C17.6 43.675 11.975 40.7 8.375 36.075C11.7 38.675 15.875 40.225 20.425 40.225C31.275 40.225 40.075 31.425 40.075 20.575C40.075 16.025 38.525 11.85 35.95 8.525C40.575 12.1 43.55 17.725 43.55 24.025Z" fill="#358CCB"/>
<g opacity="0.4">
<path d="M24.7002 4.4C24.6752 4.575 24.6752 4.75 24.6502 4.925L27.0502 5.475L27.7252 6.125L28.6252 6.15L28.5252 7.05L28.2752 7.85L30.9752 9.875L30.7002 10.975L28.8752 11.225L27.4752 10.975L26.5752 11.325L25.9752 12.95L24.6752 14.8L25.4502 16.05L24.7752 17.775L23.9502 17.675L23.0252 17.45L23.0752 16.925L22.6002 16.1L22.7752 15.225L21.8502 14.8L21.1002 15.375L21.0752 16.65L21.3002 17.8L20.7002 17.025L20.1502 17.125L20.1002 18.125L20.8002 18.275L21.1502 18.2L22.1752 18.7L21.8752 19.3L21.3752 19.85L21.9752 21.325L21.4002 21.75L19.5002 21.375L19.4752 22.45L18.4502 24.1L20.6752 25.15L20.7252 25.75L19.0002 26.475L17.6502 27.825L15.6502 28.725L15.1002 29.675L14.9752 31.125L14.0752 32.25L14.3752 33.525L16.5002 34.15L17.8502 35.375L19.4752 35.625H22.2002L24.6002 37.4L24.5252 39.175L24.9502 39.825L24.2752 41.925L26.1752 43.475L27.5002 43.35C28.1002 43.25 28.6752 43.1 29.2502 42.95L30.4752 42.05L32.3502 41.3L34.5252 39.35L34.4002 37.575L35.9502 36.775L36.3002 34.225L37.6252 34.325L38.5502 33.525L38.6252 32.4L36.5252 32.75L34.6752 30.875L34.5002 29.925L33.8752 28.9L34.3502 28.55L36.0502 30.6L37.1752 31.225L38.5002 30.9L39.6502 29.275L40.0002 27.875L39.2252 27.625L38.6752 27.975L37.4752 27.375L37.1252 26.525L37.7252 25.925L38.5752 26.65L39.7252 26.175L40.4502 25.575L41.1752 25.4L41.7752 26L42.5002 25.65L42.8502 27.4L43.2752 27.3C43.4502 26.25 43.5502 25.175 43.5502 24.075C43.5752 13.45 35.1752 4.825 24.7002 4.4ZM33.0252 27.675L31.7252 28.25L30.3002 27.675L29.3252 27.925L28.7502 29L27.4502 28.2L26.8252 27.25L25.9002 25.85L24.8752 26.5L23.2502 26.075L21.2752 25.5L21.3752 24.975L22.1002 24.775L22.0502 24.15L23.4502 23.2L24.9002 22.825L25.9252 23.775L26.9502 24.475L26.6252 25.525L27.3752 25.625V24.9L27.8502 24.725L27.2252 23.675L26.3002 22.85L26.2502 22.325L26.4502 22.125L27.1752 23.075L28.3252 23.325L27.9502 23.8L28.7252 24.8L28.6752 25.6L29.5002 26.8L30.6002 26.85L30.7002 26.275L29.8502 25.8L29.4752 24.225L29.9502 23.9L31.1002 25.9L32.1502 25.65L33.1502 25.8L33.3502 26.525L33.0252 27.675ZM33.4752 22.825L31.8002 22.575L30.3502 23.3L29.9252 22.3L31.0252 21.05L31.5502 21.475L32.9502 21.15L33.8502 22.3L33.4752 22.825ZM37.0752 23.075L36.5002 23.225L36.2002 21.825L34.9002 20.15L35.4752 19.375L36.6752 21.35L37.4502 22.45L37.0752 23.075ZM37.2502 19.125L36.5502 18.675L36.8752 18.1L37.5002 18.775L37.2502 19.125Z" fill="white"/>
<path d="M22.9004 6.475L23.2254 6.05L22.5004 5.75L21.5254 6.125L20.3504 5.6L21.8004 5.375L23.6004 5.15L22.9004 4.425C12.5254 4.925 4.27539 13.5 4.27539 24.025C4.27539 29 6.12539 33.55 9.20039 37.025C9.22539 36.875 9.27538 36.725 9.30038 36.575L8.8754 35.5L9.32539 35.425L9.52539 33.55L6.85039 30.475L6.35039 30.5L6.47539 28.325L5.52539 26.575V25.25L4.85039 22.425L5.15039 20.975L5.80038 18.375L7.0004 16L7.80038 15.925L9.35039 14.55L10.0004 14.95L12.0504 14.875L12.9254 13.7L11.6754 12.525L13.1504 12.05L14.9004 11.1L14.2754 10.775L14.9754 10.25L16.2754 10.325L17.0504 9.25L17.4254 9.725L17.8754 8.775L18.7504 8.225L19.5004 7.8L20.3254 7.7L20.7004 8.375L19.0004 9.45L18.9504 9.8L17.3004 10.9L17.1504 12.4L17.8254 12.3L20.2004 11L21.3254 11.075L22.8754 10.85L24.6004 9.6L25.2754 8.4L23.0754 7.25L22.9004 6.475Z" fill="white"/>
</g>
<path d="M1.97499 24.025H0C0 10.775 10.775 0 24.025 0C27.625 0 31.075 0.775003 34.275 2.3L33.425 4.1C30.475 2.7 27.3 2 24.025 2C11.85 1.975 1.97499 11.85 1.97499 24.025Z" fill="url(#paint2_linear_2004_10426)"/>
<path d="M37.5746 43.75L36.4496 42.125C39.1496 40.275 41.3246 37.875 42.9996 35.05C49.0996 24.525 45.4996 11.025 34.9746 4.925L35.9746 3.2C47.4246 9.85 51.3496 24.575 44.6996 36.025C42.9246 39.125 40.5246 41.725 37.5746 43.75Z" fill="url(#paint3_linear_2004_10426)"/>
<path d="M24.0248 48.05C21.9248 48.05 19.8248 47.775 17.7498 47.225C11.5498 45.55 6.3748 41.575 3.1748 36.025C1.3748 32.925 0.324805 29.55 0.0498047 26L2.02481 25.85C2.29981 29.1 3.24981 32.2 4.89981 35.05C7.84981 40.15 12.5998 43.8 18.2748 45.325C23.9498 46.85 29.8998 46.075 34.9998 43.125L35.9998 44.85C32.2748 46.95 28.1748 48.05 24.0248 48.05Z" fill="url(#paint4_linear_2004_10426)"/>
<path d="M65.2754 10.4475L65.4254 9.79751H69.5004L69.3504 10.4475H67.8754L67.2504 13.4225H66.1504L66.7754 10.4475H65.2754Z" fill="#008FD5"/>
<path d="M69.7504 12.6725L70.2004 10.5475C70.3004 10.0475 70.6754 9.79751 71.3004 9.79751H73.2254C73.8504 9.79751 74.1004 10.0475 74.0004 10.5475L73.5504 12.6725C73.4504 13.1725 73.0754 13.4225 72.4504 13.4225H70.5254C69.9004 13.3975 69.6504 13.1475 69.7504 12.6725ZM70.8754 12.5975C70.8504 12.6975 70.9004 12.7475 71.0254 12.7475H72.2254C72.3504 12.7475 72.4254 12.6975 72.4504 12.5975L72.8754 10.5975C72.9004 10.4975 72.8504 10.4475 72.7254 10.4475H71.5254C71.4004 10.4475 71.3254 10.4975 71.3004 10.5975L70.8754 12.5975Z" fill="#008FD5"/>
<path d="M74.4254 13.3975L75.2004 9.77251H77.9004C78.5254 9.77251 78.7754 10.0225 78.6754 10.5225L78.5004 11.3725C78.4004 11.8725 78.0254 12.1225 77.4004 12.1225H75.8004L75.5254 13.4225H74.4254V13.3975ZM75.9254 11.4475H77.1504C77.2754 11.4475 77.3504 11.3975 77.3754 11.2975L77.5254 10.5975C77.5504 10.4975 77.5004 10.4475 77.3754 10.4475H76.1504L75.9254 11.4475Z" fill="#008FD5"/>
<path d="M79.0004 13.3975L79.7754 9.77251H83.0754L82.9254 10.4225H80.7254L80.1004 13.3975H79.0004Z" fill="#008FD5"/>
<path d="M83.3504 12.6725L83.8004 10.5475C83.9004 10.0475 84.2754 9.79751 84.9004 9.79751H86.8254C87.4504 9.79751 87.7004 10.0475 87.6004 10.5475L87.1504 12.6725C87.0504 13.1725 86.6754 13.4225 86.0504 13.4225H84.1254C83.5004 13.3975 83.2504 13.1475 83.3504 12.6725ZM84.4754 12.5975C84.4504 12.6975 84.5004 12.7475 84.6254 12.7475H85.8254C85.9504 12.7475 86.0254 12.6975 86.0504 12.5975L86.4754 10.5975C86.5004 10.4975 86.4504 10.4475 86.3254 10.4475H85.1254C85.0004 10.4475 84.9254 10.4975 84.9004 10.5975L84.4754 12.5975Z" fill="#008FD5"/>
<path d="M88.0254 13.3975L88.8004 9.77251H91.5004C92.1254 9.77251 92.3754 10.0225 92.2754 10.5225L92.2004 10.8475C92.1254 11.1475 91.9754 11.3725 91.7004 11.4975C91.9504 11.5975 92.0504 11.8225 91.9754 12.1725L91.8754 12.6725C91.7754 13.1725 91.4004 13.4225 90.7754 13.4225H88.0254V13.3975ZM89.2504 12.7475H90.5504C90.6754 12.7475 90.7504 12.6975 90.7754 12.5975L90.9004 11.9975C90.9254 11.8975 90.8754 11.8475 90.7504 11.8475H89.4504L89.2504 12.7475ZM89.5754 11.1725H90.8004C90.9254 11.1725 91.0004 11.1225 91.0254 11.0225L91.1254 10.5975C91.1504 10.4975 91.1004 10.4475 90.9754 10.4475H89.7504L89.5754 11.1725Z" fill="#008FD5"/>
<path d="M92.8504 12.6725L93.3004 10.5475C93.4004 10.0475 93.7754 9.79751 94.4004 9.79751H96.3254C96.9504 9.79751 97.2004 10.0475 97.1004 10.5475L96.6504 12.6725C96.5504 13.1725 96.1754 13.4225 95.5504 13.4225H93.6254C93.0004 13.3975 92.7504 13.1475 92.8504 12.6725ZM93.9504 12.5975C93.9254 12.6975 93.9754 12.7475 94.1004 12.7475H95.3004C95.4254 12.7475 95.5004 12.6975 95.5254 12.5975L95.9504 10.5975C95.9754 10.4975 95.9254 10.4475 95.8004 10.4475H94.6004C94.4754 10.4475 94.4004 10.4975 94.3754 10.5975L93.9504 12.5975Z" fill="#008FD5"/>
<path d="M97.7004 12.1725L97.8504 11.5225H99.9504L99.8004 12.1725H97.7004Z" fill="#008FD5"/>
<path d="M100.45 13.3975L101.225 9.77251H103.925C104.55 9.77251 104.8 10.0225 104.7 10.5225L104.525 11.3725C104.425 11.8725 104.05 12.1225 103.425 12.1225H101.825L101.55 13.4225H100.45V13.3975ZM101.975 11.4475H103.2C103.325 11.4475 103.4 11.3975 103.425 11.2975L103.575 10.5975C103.6 10.4975 103.55 10.4475 103.425 10.4475H102.2L101.975 11.4475Z" fill="#008FD5"/>
<path d="M104.5 13.3975L106.825 9.77251H108.2L109 13.3975H107.925L107.75 12.6225H106.05L105.55 13.3975H104.5ZM106.5 11.9725H107.625L107.35 10.6725L106.5 11.9725Z" fill="#008FD5"/>
<path d="M109.8 13.3975L109.95 12.7475H112.175C112.3 12.7475 112.375 12.6975 112.4 12.5975L112.525 11.9975C112.55 11.8975 112.5 11.8475 112.375 11.8475H110.65L110.8 11.1975H112.525C112.65 11.1975 112.725 11.1475 112.75 11.0475L112.85 10.6225C112.875 10.5225 112.825 10.4725 112.7 10.4725H110.475L110.625 9.8225H113.2C113.825 9.8225 114.075 10.0725 113.975 10.5725L113.9 10.8725C113.825 11.1975 113.65 11.3975 113.375 11.5225C113.6 11.6475 113.7 11.8475 113.625 12.1725L113.525 12.6975C113.425 13.1975 113.05 13.4475 112.425 13.4475H109.8V13.3975Z" fill="#008FD5"/>
<path d="M114.325 13.3975L115.1 9.77251H117.8C118.425 9.77251 118.675 10.0225 118.575 10.5225L118.5 10.8475C118.425 11.1475 118.275 11.3725 118 11.4975C118.25 11.5975 118.35 11.8225 118.275 12.1725L118.175 12.6725C118.075 13.1725 117.7 13.4225 117.075 13.4225H114.325V13.3975ZM115.575 12.7475H116.875C117 12.7475 117.075 12.6975 117.1 12.5975L117.225 11.9975C117.25 11.8975 117.2 11.8475 117.075 11.8475H115.775L115.575 12.7475ZM115.9 11.1725H117.125C117.25 11.1725 117.325 11.1225 117.35 11.0225L117.45 10.5975C117.475 10.4975 117.425 10.4475 117.3 10.4475H116.075L115.9 11.1725Z" fill="#008FD5"/>
<path d="M118.8 13.3975L120.75 9.77251H123.575L122.8 13.3975H121.7L122.325 10.4225H121.45L119.85 13.3975H118.8Z" fill="#008FD5"/>
<path d="M123.85 13.3975L124.625 9.77251H128.15L128 10.4225H125.575L125.425 11.1725H127.575L127.425 11.8225H125.275L125.075 12.7225H127.5L127.35 13.3725H123.85V13.3975Z" fill="#008FD5"/>
<path d="M128.325 13.3975L129.1 9.77251H130.2L129.9 11.1725L131.65 9.77251H133L131.125 11.2725L132.275 13.3975H131.05L130.275 11.9475L129.625 12.4725L129.425 13.3975H128.325Z" fill="#008FD5"/>
<path d="M132.975 13.3975L135.3 9.77251H136.675L137.475 13.3975H136.4L136.225 12.6225H134.525L134.025 13.3975H132.975ZM134.975 11.9725H136.1L135.825 10.6725L134.975 11.9725Z" fill="#008FD5"/>
<path d="M138.175 10.4475L138.325 9.79751H142.4L142.25 10.4475H140.775L140.15 13.4225H139.05L139.675 10.4475H138.175Z" fill="#008FD5"/>
<path d="M142.5 13.3975L143.275 9.77251H146.8L146.65 10.4225H144.225L144.075 11.1725H146.225L146.075 11.8225H143.925L143.725 12.7225H146.15L146 13.3725H142.5V13.3975Z" fill="#008FD5"/>
<path d="M146.85 13.3975L148.8 9.77251H151.625L150.85 13.3975H149.75L150.375 10.4225H149.5L147.9 13.3975H146.85Z" fill="#008FD5"/>
<path d="M151.9 13.3975L152.675 9.77251H153.775L153.475 11.1725H155.075C155.7 11.1725 155.95 11.4225 155.85 11.9225L155.7 12.6475C155.6 13.1475 155.225 13.3975 154.6 13.3975H151.9ZM153.15 12.7475H154.375C154.5 12.7475 154.575 12.6975 154.6 12.5975L154.725 11.9975C154.75 11.8975 154.7 11.8475 154.575 11.8475H153.35L153.15 12.7475Z" fill="#008FD5"/>
<path d="M156.5 13.3975L157.275 9.77251H158.375L158.075 11.1725H159.675L159.975 9.77251H161.075L160.3 13.3975H159.2L159.525 11.8225H157.925L157.6 13.3975H156.5Z" fill="#008FD5"/>
<path d="M161.325 13.3975L162.1 9.77251H163.2L162.9 11.1725H164.5C165.125 11.1725 165.375 11.4225 165.275 11.9225L165.125 12.6475C165.025 13.1475 164.65 13.3975 164.025 13.3975H161.325ZM162.55 12.7475H163.775C163.9 12.7475 163.975 12.6975 164 12.5975L164.125 11.9975C164.15 11.8975 164.1 11.8475 163.975 11.8475H162.75L162.55 12.7475ZM165.45 13.3975L166.225 9.77251H167.325L166.55 13.3975H165.45Z" fill="#008FD5"/>
<path d="M167.575 13.3975L168.35 9.77251H169.45L168.975 11.9475L171 9.77251H172.175L171.4 13.3975H170.3L170.775 11.2225L168.75 13.3975H167.575ZM169.575 9.04751L169.675 8.5725H170.225L170.125 9.02251C170.125 9.07251 170.15 9.0975 170.2 9.0975H170.65C170.7 9.0975 170.725 9.07251 170.75 9.02251L170.85 8.5725H171.4L171.3 9.04751C171.25 9.32251 171.05 9.4475 170.725 9.4475H170C169.65 9.4475 169.525 9.32251 169.575 9.04751Z" fill="#008FD5"/>
<path d="M174.5 13.3975L175.275 9.77251H176.375L175.75 12.7475H177.35L177.975 9.77251H179.075L178.45 12.7475H179.05L178.7 14.3975H177.775L177.975 13.3975H174.5Z" fill="#008FD5"/>
<path d="M179.775 13.3975L180.55 9.77251H184.075L183.925 10.4225H181.5L181.35 11.1725H183.5L183.35 11.8225H181.2L181 12.7225H183.425L183.275 13.3725H179.775V13.3975Z" fill="#008FD5"/>
<path d="M184.275 13.3975L185.05 9.77251H186.15L185.85 11.1725H187.45L187.75 9.77251H188.85L188.075 13.3975H186.975L187.3 11.8225H185.7L185.375 13.3975H184.275Z" fill="#008FD5"/>
<path d="M189.575 10.4475L189.725 9.79751H193.8L193.65 10.4475H192.175L191.55 13.4225H190.45L191.075 10.4475H189.575Z" fill="#008FD5"/>
<path d="M193.9 13.3975L194.675 9.77251H197.375C198 9.77251 198.25 10.0225 198.15 10.5225L197.975 11.3725C197.875 11.8725 197.5 12.1225 196.875 12.1225H195.275L195 13.4225H193.9V13.3975ZM195.425 11.4475H196.65C196.775 11.4475 196.85 11.3975 196.875 11.2975L197.025 10.5975C197.05 10.4975 197 10.4475 196.875 10.4475H195.65L195.425 11.4475Z" fill="#008FD5"/>
<path fill-rule="evenodd" clip-rule="evenodd" d="M60.2998 37.875C62.5248 37.875 64.8498 37.9 67.0998 37.9C68.0998 33.15 69.1248 28.575 70.2498 23.825C70.2998 23.625 70.3748 23.075 71.0998 23.075L81.6998 23.025L82.5498 19.75C77.8248 19.75 75.9498 19.7 71.2248 19.7C67.2498 19.725 63.6998 23.025 63.1248 25.325L60.2998 37.875ZM167.025 31.475C164.85 31.475 162.5 31.475 160.375 31.4C156.675 31.25 154.075 29.05 154.7 26.325C155.175 24.15 155.675 21.95 156.2 19.775H160.425C161.725 19.775 162.8 20.95 162.275 22.875C161.8 24.925 161.775 24.925 161.25 27.25C161.075 28.175 161.275 28.675 162.85 28.675L167.65 28.7L169.675 19.75H176.4L173.525 32.675C172.875 34.925 168.825 38 165.65 37.9C161.6 37.9 158.275 37.875 154.225 37.875L155.05 34.575C158.475 34.575 160.475 34.525 163.925 34.525C165.45 34.525 166.45 33.65 166.75 32.725L167.025 31.475ZM93.3248 37.875H100.125L104.075 19.725H101.325C97.2748 19.725 94.7748 19.725 90.7498 19.725C87.3748 19.65 83.6248 22.4 82.6748 25.325C81.7998 29.35 81.4998 30.625 80.6248 34.65C80.4998 35.075 79.9748 35.475 79.2998 35.5L78.4248 35.525L77.8998 37.875C78.1498 37.875 80.4248 37.875 80.6748 37.875C83.1998 37.875 81.0998 37.875 83.6248 37.875C85.7248 37.875 87.0248 36.075 87.2248 35.15C88.1998 30.75 88.7498 28.475 89.7248 24.075C89.8498 23.6 89.7748 22.925 91.0248 23H96.6248L93.3248 37.875ZM150.675 30.65C150.525 31.4 150.375 32.025 150.275 32.5C149.45 35.825 147.45 37.85 142.1 37.875C134.925 37.875 136.075 37.875 128.875 37.9C129.825 33.625 130.65 29.75 131.625 25.35C132.5 22.225 136.525 19.675 139.6 19.7C141.85 19.7 149.65 19.775 151.1 19.775L150.25 23.075C146.225 23.075 143.825 23.075 139.8 23.075C139.075 23.1 138.9 23.45 138.825 23.8L138.375 25.7H145.05C148.975 25.675 151.15 27.475 150.675 30.65ZM137.825 28.15L136.4 34.575C137.425 34.575 139.8 34.525 140.85 34.525C142 34.525 143.1 34.05 143.325 33.1C143.65 31.75 143.775 31.35 144.175 29.55C144.45 28.725 143.975 28.15 142.725 28.15H137.825ZM197.65 31.525C197.625 31.7 197.45 32.45 197.375 32.75C196.075 35.625 192.675 37.9 189.525 37.9C187.975 37.9 184.4 37.875 182.875 37.875C179.35 37.9 176.5 35.9 177.225 32.775C178.125 28.65 177.925 29.475 178.825 25.35C179.65 22.3 183.55 19.7 186.925 19.75C189.175 19.75 192.1 19.75 193.55 19.75C197.95 19.75 199.7 22.025 199.025 25.3C199 25.575 198.95 25.775 198.875 26.05C195.95 26.05 196.35 26.05 193.45 26.05C192.35 26.05 192.2 25.65 192.35 25.05C192.45 24.6 192.425 24.75 192.525 24.3C192.65 23.7 192.6 23.075 191.55 23.075C191.125 23.075 187.7 23.075 187.275 23.075C186.2 23.075 186.05 23.475 185.9 24.225C185.125 27.875 184.55 29.925 183.775 33.575C183.625 34.375 183.85 34.55 184.9 34.55C185.375 34.55 188.775 34.55 189.25 34.55C190.3 34.525 190.175 34.4 190.45 33.6C190.575 32.975 190.575 33.125 190.7 32.5C190.75 31.775 191.375 31.575 192.5 31.575L197.65 31.525ZM116.2 22.7C116.5 22.7 119.525 22.7 119.825 22.7C120.875 22.7 121.225 23.25 121.1 23.95C120.325 27.525 119.7 30 118.925 33.55C118.7 34.25 118.2 34.85 117.025 34.825C116.6 34.825 113.7 34.825 113.375 34.825C112.25 34.825 112.025 34.3 112.2 33.6C113.025 30 113.675 27.525 114.45 23.925C114.65 23.525 114.825 22.9 116.2 22.7ZM117.875 38.175C121.55 38.2 125.3 35.675 125.85 32.975C126.775 28.775 126.7 29.1 127.625 24.9C128.225 22.175 126.575 19.375 122.125 19.4C120.675 19.4 117.625 19.35 115.4 19.35C113.45 19.35 108.65 21.05 107.375 25C106.4 29.225 106.45 28.775 105.5 33C104.6 36.8 108.675 38.15 111.25 38.175C112.8 38.175 116.325 38.175 117.875 38.175Z" fill="#008FD5"/>
</g>
<defs>
<radialGradient id="paint0_radial_2004_10426" cx="0" cy="0" r="1" gradientUnits="userSpaceOnUse" gradientTransform="translate(22.2954 18.3476) scale(21.7258 21.7258)">
<stop stop-color="#0088CB"/>
<stop offset="1" stop-color="#0083CA"/>
</radialGradient>
<linearGradient id="paint1_linear_2004_10426" x1="26.7818" y1="22.5071" x2="15.7685" y2="11.9461" gradientUnits="userSpaceOnUse">
<stop offset="0.0985222" stop-color="white" stop-opacity="0"/>
<stop offset="1" stop-color="white"/>
</linearGradient>
<linearGradient id="paint2_linear_2004_10426" x1="-0.01865" y1="11.9994" x2="34.2651" y2="11.9994" gradientUnits="userSpaceOnUse">
<stop stop-color="#FFF200"/>
<stop offset="1" stop-color="#F37021"/>
</linearGradient>
<linearGradient id="paint3_linear_2004_10426" x1="41.4657" y1="3.18227" x2="41.4657" y2="43.7424" gradientUnits="userSpaceOnUse">
<stop stop-color="#7BD3F7"/>
<stop offset="1" stop-color="#00AEEF"/>
</linearGradient>
<linearGradient id="paint4_linear_2004_10426" x1="35.9751" y1="36.9295" x2="0.0267301" y2="36.9295" gradientUnits="userSpaceOnUse">
<stop stop-color="#BFD730"/>
<stop offset="1" stop-color="#39B54A"/>
</linearGradient>
<clipPath id="clip0_2004_10426">
<rect width="199.25" height="48" fill="white"/>
</clipPath>
</defs>
</svg>
