<svg width="1296" height="176" viewBox="0 0 1296 176" xmlns="http://www.w3.org/2000/svg">
<g clip-path="url(#clip0_1249_2537)">
<circle cx="88" cy="88" r="87.5" stroke="#E5E5E5"/>
<g clip-path="url(#clip1_1249_2537)">
<path d="M130.671 90.4365H126.766V88.3424H130.659C131.406 88.3424 131.807 88.8713 131.807 89.3699C131.807 89.9979 131.344 90.437 130.678 90.437M131.986 91.7449L132.081 91.7166C133.049 91.4049 133.606 90.5692 133.606 89.4265C133.606 87.9675 132.454 86.9051 130.872 86.9051H124.97V94.238H126.778V91.8818H130.017L131.84 94.238H133.88L131.991 91.7449M106.593 92.7317V86.8858H104.855V94.2347H112.193V92.7284H106.593M78.5217 88.4921H82.4771V94.2337H84.2171V88.4921H88.1692V86.8938H78.5217V88.4921M42.122 88.4921H46.0741V94.2337H47.8154V88.4921H51.7675V86.8938H42.1191V88.4921M57.9119 92.9589C56.5568 92.9589 54.923 92.3526 54.923 90.5555C54.923 88.9076 56.4198 88.1691 57.9024 88.1691C59.7675 88.1691 60.8819 89.0616 60.8819 90.5564C60.8819 92.0816 59.7817 92.9598 57.9166 92.9598M57.9072 86.6894C55.6502 86.6894 53.0155 87.7017 53.0155 90.5564C53.0155 92.0768 53.889 92.9881 54.6161 93.4839C55.5038 94.0869 56.7078 94.433 57.9119 94.433C59.2104 94.433 60.4144 94.0807 61.3068 93.4381C62.2889 92.7317 62.8083 91.7345 62.8083 90.5564C62.8083 88.206 60.8913 86.6894 57.9166 86.6894M118.104 92.9598C116.749 92.9598 115.116 92.3526 115.116 90.5564C115.116 88.9086 116.612 88.1691 118.095 88.1691C119.96 88.1691 121.074 89.0616 121.074 90.5564C121.074 92.0816 119.969 92.9598 118.109 92.9598M118.1 86.6894C115.847 86.6894 113.213 87.7017 113.213 90.5564C113.213 92.0768 114.081 92.9881 114.812 93.4839C115.7 94.0869 116.901 94.433 118.106 94.433C119.404 94.433 120.608 94.0807 121.499 93.4381C122.481 92.7317 122.997 91.7345 122.997 90.5564C122.997 88.206 121.075 86.6894 118.105 86.6894M91.5409 91.0758L93.0283 88.3467L94.5156 91.073L91.5362 91.0754L91.5409 91.0758ZM94.0718 86.8806H91.9801L87.9383 94.2323H89.8128L90.7524 92.5089H95.2994L96.2343 94.2323H98.1405L94.0656 86.8759L94.0718 86.8806ZM100.153 94.2323H102.018V86.8952H100.153M69.7346 90.1579L66.8496 86.8891H64.7721V94.2361H66.4813V88.9855L66.6032 89.1083L69.7384 92.6298L72.8972 89.1083L73.0186 88.9855V94.2361H74.7292V86.8891H72.6517L69.7393 90.1579M97.7155 72.5445C94.9949 71.2069 91.616 70.7007 88.2796 70.7007C84.9442 70.7007 81.5824 71.2069 78.8617 72.5445C78.6804 72.6493 78.5274 72.7697 78.5184 72.9803V76.2903C78.5043 76.5292 78.5893 76.6184 78.8065 76.5575C80.1635 76.1089 81.8992 75.7043 83.1844 75.5768C83.3733 75.5485 83.4928 75.624 83.4961 75.8271L83.5008 80.2277C83.5197 80.393 83.5825 80.4968 83.692 80.5299C84.693 80.8226 86.6998 81.1531 88.2801 81.1531C89.8619 81.1531 91.8852 80.8226 92.8847 80.5299C92.9933 80.4921 93.0547 80.3882 93.0736 80.223V75.8223C93.0783 75.6193 93.1964 75.5437 93.3852 75.5674C94.6696 75.6948 96.4024 76.0962 97.7623 76.5448C97.9795 76.6014 98.0645 76.5164 98.0456 76.2756V72.9704C98.0409 72.7579 97.8851 72.6399 97.7009 72.5313" fill="#1A1A1A"/>
<path d="M87.2829 102.595C87.219 102.593 87.1552 102.604 87.0955 102.627C87.0358 102.65 86.9814 102.685 86.9354 102.729C86.8894 102.774 86.8529 102.827 86.8279 102.886C86.803 102.945 86.7901 103.009 86.7901 103.073C86.7901 103.137 86.803 103.2 86.8279 103.259C86.8529 103.318 86.8894 103.371 86.9354 103.416C86.9814 103.46 87.0358 103.495 87.0955 103.518C87.1552 103.541 87.219 103.552 87.2829 103.55C87.546 103.55 87.7589 103.338 87.7589 103.073C87.7589 102.809 87.5464 102.595 87.2867 102.595L87.2829 102.595ZM82.7085 101.397H83.0211L83.1689 100.621H84.1822V103.043L83.532 103.232V103.453H85.4396V103.232L84.788 103.043V100.621H85.8173L85.9637 101.397H86.2801V100.211H82.701M79.3108 100.941C79.3108 100.612 79.6602 100.5 79.9671 100.5C80.2363 100.5 80.5101 100.62 80.6565 100.744L80.7698 101.405H81.1523V100.314C80.8548 100.21 80.4015 100.068 79.9813 100.068C79.2636 100.068 78.7442 100.446 78.7442 101.036C78.7442 102.113 80.647 101.886 80.647 102.68C80.647 103.005 80.2174 103.161 79.9057 103.161C79.6649 103.161 79.358 103.02 79.1786 102.892L79.0653 102.198H78.697V103.345C78.9897 103.454 79.41 103.586 79.8491 103.586C80.5951 103.586 81.2609 103.27 81.2609 102.571C81.2609 101.424 79.2919 101.579 79.2919 100.933L79.3108 100.941ZM76.5344 103.028H75.2784V101.939H76.3314V101.512H75.2784V100.623H76.4825L76.6619 101.232H76.9027V100.211H74.0371V100.428L74.6698 100.623V103.036L74.0371 103.229V103.453H76.9079L77.0897 102.456L76.8725 102.39M101.704 102.545C102.022 102.307 102.748 101.796 102.748 101.243C102.748 100.446 102.105 100.058 101.421 100.058C100.992 100.058 100.524 100.264 100.226 100.505L100.5 100.891C100.788 100.702 101.1 100.546 101.473 100.546C101.883 100.546 102.162 100.787 102.162 101.221C102.162 101.675 101.322 102.26 100.953 102.562L100.236 103.162V103.455H102.73V103.002H101.087L101.705 102.548L101.704 102.545ZM89.5692 100.437L90.2048 100.634V103.037L89.572 103.227V103.449H91.4513V103.223L90.8186 103.029V100.621L91.4513 100.432V100.205H89.5768M98.0381 100.314C97.7642 100.314 97.4195 100.441 97.2307 100.531C97.5329 99.7143 98.1561 99.1147 99.0674 98.7511L98.921 98.4395C97.3345 98.9022 96.3949 100.271 96.4374 101.664C96.4705 102.651 96.9568 103.482 97.972 103.482C98.8738 103.482 99.4499 102.765 99.4499 101.891C99.4499 100.824 98.8361 100.309 98.0428 100.309L98.0381 100.314ZM98.0475 103.105C97.4715 103.138 97.0607 102.467 97.0418 101.792C97.0371 101.367 97.0937 101.06 97.1362 100.881C97.2968 100.824 97.684 100.673 97.9909 100.673C98.5622 100.673 98.8408 101.268 98.8549 101.919C98.8738 102.576 98.6189 103.071 98.0523 103.105H98.0475ZM94.0199 100.059C93.1228 100.059 92.5373 100.777 92.5373 101.65C92.5373 102.717 93.1558 103.227 93.9491 103.227C94.2277 103.227 94.5723 103.105 94.7565 103.01C94.4496 103.827 93.8263 104.427 92.9197 104.785L93.0708 105.102C94.6621 104.639 95.6017 103.265 95.5592 101.872C95.5261 100.881 95.0445 100.05 94.0293 100.05L94.0199 100.059ZM94.8509 102.651C94.6998 102.713 94.3126 102.864 94.001 102.864C93.4344 102.864 93.1558 102.269 93.1369 101.617C93.1228 100.956 93.3777 100.46 93.9444 100.427C94.5242 100.394 94.934 101.06 94.9501 101.735C94.9606 102.04 94.9288 102.345 94.8556 102.642L94.8509 102.651Z" fill="#1A1A1A"/>
</g>
</g>
<g clip-path="url(#clip2_1249_2537)">
<circle cx="248" cy="88" r="87.5" stroke="#E5E5E5"/>
<g clip-path="url(#clip3_1249_2537)">
<path fill-rule="evenodd" clip-rule="evenodd" d="M202.121 83.8867H209.849V85.0458H203.28V85.8191H209.849V88.91H202.121V87.7508H208.69V86.9783H202.121V83.8867Z" fill="#1A1A1A"/>
<path fill-rule="evenodd" clip-rule="evenodd" d="M250.041 83.8867H257.771V85.0458H251.2V85.8191H257.771V88.91H250.041V87.7508H256.612V86.9783H250.041V83.8867Z" fill="#1A1A1A"/>
<path fill-rule="evenodd" clip-rule="evenodd" d="M265.498 83.8867H273.226V88.91H265.498V83.8867ZM272.067 87.7508V85.0458H266.657V87.7508H272.067Z" fill="#1A1A1A"/>
<path fill-rule="evenodd" clip-rule="evenodd" d="M273.613 83.8867H280.956V85.0458H277.864V88.91H276.705V85.0458H273.613V83.8867Z" fill="#1A1A1A"/>
<path d="M282.503 83.8867H281.344V88.91H282.503V83.8867Z" fill="#1A1A1A"/>
<path fill-rule="evenodd" clip-rule="evenodd" d="M283.275 83.8867H284.435L289.845 87.5527V83.8867H291.004V88.91H289.845L284.435 85.2961V88.91H283.275V83.8867Z" fill="#1A1A1A"/>
<path fill-rule="evenodd" clip-rule="evenodd" d="M258.543 83.8867H259.702V87.7508H265.114V88.91H258.543V83.8867Z" fill="#1A1A1A"/>
<path fill-rule="evenodd" clip-rule="evenodd" d="M226.469 83.8867H234.197V85.0458H227.628V87.7508H233.038V86.9783H228.401V85.8191H234.197V88.91H226.469V83.8867Z" fill="#1A1A1A"/>
<path fill-rule="evenodd" clip-rule="evenodd" d="M210.623 83.8867H217.192V85.0458H211.782V85.8191H217.192V86.9783H211.782V87.7508H217.192V88.91H210.623V83.8867Z" fill="#1A1A1A"/>
<path fill-rule="evenodd" clip-rule="evenodd" d="M234.969 83.8867H241.539V85.0458H236.128V85.8191H241.539V86.9783H236.128V87.7508H241.539V88.91H234.969V83.8867Z" fill="#1A1A1A"/>
<path fill-rule="evenodd" clip-rule="evenodd" d="M249.476 83.8843H247.984L245.791 86.0754L243.598 83.8843H242.111L245.2 86.9782H245.211V88.9099H246.37V86.9782H246.379L249.476 83.8843Z" fill="#1A1A1A"/>
<path fill-rule="evenodd" clip-rule="evenodd" d="M217.967 83.8867H225.695V86.9783H223.776L225.695 88.91H224.15L222.23 86.9783H219.126V88.91H217.967V83.8867ZM224.536 85.8191V85.0458H219.126V85.8191H224.536Z" fill="#1A1A1A"/>
<path fill-rule="evenodd" clip-rule="evenodd" d="M234.197 93.1616H257.384L255.839 94.7075H235.741L234.197 93.1616Z" fill="#1A1A1A"/>
<path fill-rule="evenodd" clip-rule="evenodd" d="M245.792 104.747V102.822L236.133 93.1643H234.197L245.792 104.747Z" fill="#1A1A1A"/>
<path fill-rule="evenodd" clip-rule="evenodd" d="M245.791 104.747V102.822L251.19 97.4126H253.121L245.791 104.747Z" fill="#1A1A1A"/>
<path fill-rule="evenodd" clip-rule="evenodd" d="M250.721 97.4126L245.791 102.358L238.451 95.0174H238.834V95.0166H255.438L253.893 96.5623H241.927L245.791 100.427L248.807 97.4126H250.721Z" fill="#1A1A1A"/>
<path fill-rule="evenodd" clip-rule="evenodd" d="M244.342 89.2964H247.189L245.961 90.5304L247.373 91.9428L248.193 91.8291V92.1185L247.627 92.1945L248.207 92.774H247.819L247.286 92.2412L243.331 92.774L243.332 92.7732L243.326 92.774L245.574 90.5281L244.342 89.2964ZM246.514 89.5867H245.019L245.767 90.3351L246.514 89.5867ZM244.105 92.3942L247.034 91.9887L245.768 90.724L244.105 92.3942Z" fill="#1A1A1A"/>
<path d="M292.809 82.8247C293.4 82.8247 293.866 83.2844 293.866 83.8746C293.866 84.4715 293.4 84.9381 292.803 84.9381C292.212 84.9381 291.74 84.4715 291.74 83.8746C291.74 83.2844 292.212 82.8247 292.803 82.8247H292.809ZM292.796 83.01C292.322 83.01 291.959 83.4012 291.959 83.8746C291.959 84.3614 292.322 84.7458 292.809 84.7458C293.283 84.7527 293.64 84.3614 293.64 83.8813C293.64 83.4012 293.283 83.01 292.803 83.01H292.796ZM292.61 84.4579H292.418V83.353C292.522 83.3327 292.639 83.3182 292.782 83.3182C292.968 83.3182 293.056 83.353 293.132 83.408C293.193 83.4488 293.242 83.5385 293.242 83.6409C293.242 83.7787 293.14 83.8602 293.021 83.9024V83.9153C293.125 83.9499 293.173 84.0388 293.207 84.1828C293.242 84.3478 293.263 84.4164 293.29 84.4579H293.091C293.056 84.4164 293.029 84.3208 293.002 84.1692C292.974 84.0457 292.899 83.9907 292.741 83.9907H292.61V84.4579ZM292.61 83.8331H292.747C292.899 83.8331 293.035 83.7916 293.035 83.662C293.035 83.5519 292.968 83.4766 292.769 83.4766C292.694 83.4766 292.645 83.4834 292.61 83.4902V83.8331Z" fill="#1A1A1A"/>
</g>
</g>
<g clip-path="url(#clip4_1249_2537)">
<circle cx="408" cy="88" r="87.5" stroke="#E5E5E5"/>
<g clip-path="url(#clip5_1249_2537)">
<path d="M409.477 83.3315C408.251 82.3486 406.618 81.7318 404.55 81.7318C400.182 81.7318 396.638 85.5121 396.638 90.1738C396.638 94.8356 400.182 98.6205 404.55 98.6205C406.622 98.6205 408.251 98.0046 409.477 97.0208V98.3116H413.724V82.0305H409.477V83.3315ZM405.19 94.7093C402.812 94.7093 400.887 92.6808 400.887 90.1748C400.887 87.6687 402.812 85.6439 405.19 85.6439C406.392 85.6439 407.545 86.1215 408.395 86.9715C409.245 87.8215 409.723 88.9744 409.723 90.1766C409.723 91.3787 409.245 92.5316 408.395 93.3817C407.545 94.2317 406.392 94.7093 405.19 94.7093ZM430.69 98.3153H434.937V85.2511H430.69V98.3153ZM429.86 81.0448C429.86 81.8281 430.171 82.5793 430.725 83.1331C431.278 83.6869 432.03 83.9981 432.813 83.9981C433.596 83.9981 434.347 83.6869 434.901 83.1331C435.455 82.5793 435.766 81.8281 435.766 81.0448C435.766 78.785 433.93 77.2092 431.271 77.1557C428.183 77.0977 424.286 78.7748 422.542 83.9326V82.0305H418.297V98.3153H422.543V88.8489C422.543 82.7515 426.021 77.8012 431.245 77.8537C431.73 77.8618 432.211 77.9416 432.672 78.0907C431.914 78.1279 431.199 78.4554 430.675 79.0054C430.152 79.5554 429.86 80.2856 429.86 81.0448H429.86ZM397.07 82.0305H391.07L384.42 88.339V77.3383H380.172V98.3153H384.42V92.3848L391.07 98.3153H397.037L388.298 90.1904L397.07 82.0305Z" fill="#1A1A1A"/>
<path d="M388.811 78.9824H389.837V78.5149H388.811V77.8059H389.957V77.3384H388.311V80.1874H390.001V79.72H388.811V78.9824ZM392.02 79.7642C391.438 79.7642 391.035 79.3576 391.035 78.7629C391.035 78.1442 391.433 77.7616 391.963 77.7616C392.193 77.755 392.419 77.8219 392.608 77.9525L392.832 77.5837C392.588 77.3854 392.279 77.2829 391.965 77.2951C391.024 77.2951 390.507 77.946 390.507 78.7648C390.507 79.6527 391.106 80.2345 391.977 80.2345C392.345 80.2345 392.714 80.1045 392.889 79.9127L392.698 79.5383C392.503 79.6865 392.265 79.7659 392.02 79.7642ZM393.956 77.9082C393.83 79.6259 393.54 79.72 393.321 79.6914L393.309 80.1874C393.87 80.2695 394.241 80.003 394.408 78.3434L394.465 77.8059H395.295V80.1874H395.792V77.3384H393.995L393.956 77.9082ZM397.149 79.3668V77.3384H396.647V80.1874H397.087L398.579 78.1682V80.1874H399.08V77.3384H398.64L397.149 79.3668ZM402.661 77.2951C401.786 77.2951 401.179 77.9405 401.179 78.7648C401.179 79.6527 401.815 80.2345 402.661 80.2345C403.507 80.2345 404.147 79.6195 404.147 78.7648C404.144 77.875 403.506 77.2932 402.658 77.2932L402.661 77.2951ZM402.661 79.7661C402.128 79.7661 401.708 79.3346 401.708 78.7648C401.708 78.1747 402.116 77.7634 402.661 77.7634C403.206 77.7634 403.618 78.1747 403.618 78.7648C403.615 79.3244 403.257 79.7642 402.658 79.7642L402.661 79.7661ZM405.671 78.4172C405.543 78.4176 405.416 78.4256 405.289 78.4411V77.8059H406.453V77.3384H404.788V80.1874C404.955 80.1874 405.199 80.204 405.526 80.204C406.225 80.204 406.625 79.8666 406.625 79.2756C406.628 78.7509 406.266 78.4172 405.671 78.4172ZM405.606 79.7357C405.501 79.7357 405.403 79.7283 405.289 79.72V78.9058C405.402 78.8907 405.516 78.8827 405.631 78.8819C405.981 78.8819 406.131 79.0663 406.131 79.3088C406.131 79.5512 405.977 79.7357 405.606 79.7357ZM408.484 78.998L407.524 77.3384H406.923L408.218 79.4996L407.87 80.1967H408.403L409.829 77.3384H409.295L408.484 78.998ZM411.607 78.6845V78.6762C411.733 78.6231 411.839 78.5328 411.912 78.4174C411.985 78.3021 412.021 78.1671 412.015 78.0308C412.015 77.6362 411.759 77.3264 411.078 77.3264C410.793 77.3264 410.415 77.3393 410.256 77.3467V80.1838C410.423 80.1957 410.79 80.204 411.05 80.204C411.653 80.204 412.109 79.9357 412.109 79.3493C412.119 79.1969 412.074 79.0459 411.982 78.924C411.89 78.8021 411.757 78.7175 411.607 78.6855V78.6845ZM410.756 77.8049C410.849 77.7966 410.956 77.7929 411.071 77.7929C411.339 77.7929 411.518 77.9156 411.518 78.147C411.518 78.4079 411.327 78.526 411.095 78.526H410.756V77.8049ZM411.086 79.7357C410.976 79.7354 410.866 79.7286 410.756 79.7154V78.9621H411.111C411.425 78.9621 411.607 79.0847 411.607 79.3244C411.607 79.5937 411.425 79.7357 411.086 79.7357ZM413.66 78.2945C413.551 78.2949 413.442 78.3017 413.334 78.3148V77.3384H412.833V80.1874C413.001 80.1874 413.281 80.1957 413.554 80.1957C414.312 80.1957 414.735 79.8177 414.735 79.2147C414.735 78.6569 414.396 78.2945 413.66 78.2945ZM413.611 79.7283C413.513 79.7283 413.426 79.72 413.334 79.7154V78.7832C413.448 78.7712 413.545 78.7629 413.619 78.7629C413.97 78.7629 414.206 78.9058 414.206 79.2239C414.207 79.5771 413.977 79.7283 413.611 79.7283ZM415.405 79.6305C415.364 79.6264 415.323 79.6311 415.284 79.6443C415.246 79.6575 415.21 79.6789 415.18 79.7071C415.151 79.7353 415.127 79.7696 415.112 79.8076C415.097 79.8456 415.09 79.8865 415.092 79.9274C415.086 79.9891 415.105 80.0506 415.143 80.099C415.182 80.1475 415.238 80.1791 415.299 80.1874C415.332 80.1874 415.381 80.1874 415.405 80.1552C415.416 80.219 415.403 80.2844 415.369 80.3396C415.346 80.3916 415.312 80.4378 415.269 80.4751C415.226 80.5124 415.175 80.5398 415.12 80.5553L415.247 80.7757C415.399 80.7371 415.534 80.6473 415.628 80.5212C415.722 80.3951 415.77 80.2405 415.764 80.0833C415.765 79.8214 415.626 79.6305 415.405 79.6305ZM416.993 77.8059H417.915V80.1874H418.416V77.8059H419.338V77.3384H416.994L416.993 77.8059ZM420.983 77.2932C420.108 77.2932 419.502 77.9386 419.502 78.7629C419.502 79.6508 420.137 80.2326 420.983 80.2326C421.83 80.2326 422.47 79.6176 422.47 78.7629C422.471 77.875 421.831 77.2932 420.984 77.2932H420.983ZM420.983 79.7642C420.45 79.7642 420.031 79.3327 420.031 78.7629C420.031 78.1728 420.438 77.7616 420.983 77.7616C421.529 77.7616 421.94 78.1728 421.94 78.7629C421.941 79.3244 421.583 79.7642 420.984 79.7642H420.983Z" fill="#1A1A1A"/>
</g>
</g>
<g clip-path="url(#clip6_1249_2537)">
<circle cx="568" cy="88" r="87.5" stroke="#E5E5E5"/>
<g clip-path="url(#clip7_1249_2537)">
<path d="M530.613 82.0759C526.561 82.0759 523.249 86.194 522.15 91.7707C522.137 91.8258 522.125 91.9668 522.119 92.0219C522.222 92.0219 522.569 92.0587 522.69 91.7339C524.805 87.2481 527.393 84.4721 530.607 84.4721C533.87 84.4721 536.598 87.7812 538.245 92.0158C538.585 91.6848 539.108 91.164 539.108 90.6615C537.777 85.7099 534.423 82.0759 530.613 82.0759Z" fill="#1A1A1A"/>
<path d="M595.19 82.0759C591.137 82.0759 587.826 86.194 586.726 91.7707C586.714 91.8258 586.702 91.9668 586.695 92.0219C586.799 92.0219 587.145 92.0587 587.266 91.7339C589.381 87.2481 591.97 84.4721 595.19 84.4721C598.453 84.4721 601.181 87.7812 602.821 92.0158C603.162 91.6848 603.69 91.164 603.69 90.6615C602.347 85.7099 598.999 82.0759 595.19 82.0759Z" fill="#1A1A1A"/>
<path d="M540.505 82.0759C540.062 82.0759 539.588 82.3149 539.588 82.8787C539.588 83.1484 540.135 84.0921 540.53 85.0236C540.925 84.0737 541.447 83.2035 541.447 82.8787C541.447 82.3149 541.004 82.0759 540.505 82.0759Z" fill="#1A1A1A"/>
<path d="M547.943 82.3149C544.966 82.3149 543.21 83.0565 542.177 83.7366L543.314 84.3066C544.261 83.6815 545.379 83.0809 547.561 83.0809C551.905 83.0809 552.665 85.7038 552.798 86.7395L552.786 86.7088C552.744 86.7211 552.701 86.7333 552.665 86.7456C552.185 86.8927 551.583 87.0765 550.587 87.0765C550.149 87.0765 549.864 86.9723 549.505 86.8314C549.055 86.6598 548.49 86.4514 547.542 86.4514C546.74 86.4514 546.048 86.6169 545.531 86.7701V87.8241C546.017 87.6771 546.728 87.4626 547.542 87.4626C548.314 87.4626 548.721 87.6158 549.153 87.7812C549.554 87.9344 549.967 88.0876 550.587 88.0876C551.632 88.0876 552.312 87.9038 552.823 87.7506C552.817 87.9344 552.817 88.0876 552.81 88.1367C552.713 89.0375 552.039 91.4888 547.561 91.4888C545.118 91.4888 544.164 91.0169 543.216 90.3244L542.135 90.9863C543.295 91.7094 544.644 92.2548 547.943 92.2548C552.27 92.2548 555.253 90.3183 555.253 87.53C555.253 84.7355 552.276 82.3149 547.943 82.3149Z" fill="#1A1A1A"/>
<path d="M555.824 85.4646H558.656V92.0217H560.667V85.4646H563.407V84.5637H555.824V85.4646Z" fill="#1A1A1A"/>
<path d="M574.67 84.5637L570.496 90.4223L566.692 84.5637H564.541L569.39 91.991L567.306 94.9203H568.661L576.019 84.5637H574.67Z" fill="#1A1A1A"/>
<path d="M580.905 84.4353C578.244 84.4353 576.403 84.9991 576.342 86.2737H576.336V86.5372H578.444C578.444 85.8325 578.833 85.3361 581.033 85.3361C583.299 85.3361 583.518 85.8019 583.518 86.5372V87.5852H580.304C577.333 87.5852 575.844 88.5902 575.844 89.9506C575.844 91.1272 577.083 92.0097 579.514 92.0097H585.529V86.4576C585.535 84.9255 584.405 84.4353 580.905 84.4353ZM583.518 91.1211H580.018C578.499 91.1211 577.989 90.6186 577.989 89.8648C577.989 89.1172 578.614 88.5044 580.2 88.5044H583.518V91.1211Z" fill="#1A1A1A"/>
<path d="M609.827 87.591H606.801V84.5637H604.76V92.0155H610.41C612.683 92.0155 613.88 91.0657 613.88 89.7359C613.88 88.21 612.045 87.591 609.827 87.591ZM609.931 91.1209H606.801V88.5042H609.766C611.255 88.5042 611.838 89.0189 611.838 89.7726C611.838 90.6367 611.358 91.1209 609.931 91.1209Z" fill="#1A1A1A"/>
</g>
</g>
<g clip-path="url(#clip8_1249_2537)">
<circle cx="728" cy="88" r="87.5" stroke="#E5E5E5"/>
<path d="M696.035 94.8276C696.051 94.8276 696.035 81.1345 696.035 81.1345H699.073L704.306 88.347L709.54 81.1345H712.601C712.601 81.1345 712.585 94.8276 712.601 94.8276H709.406L709.406 87.1233L704.306 94.1508L699.207 87.1233L699.207 94.8276H696.035Z" fill="#1A1A1A"/>
<path d="M745.253 81.1338L750.485 87.67L744.785 94.8275H749.195L752.381 90.5973L755.567 94.8275H759.977L754.365 87.67L759.509 81.1338H755.1L752.381 84.7427L749.662 81.1338H745.253Z" fill="#1A1A1A"/>
<path d="M722.492 80.6071C720.155 80.5474 717.823 81.6254 716.382 83.6863C714.076 86.9837 714.815 91.5814 718.053 93.9522C721.291 96.323 725.874 95.5415 728.181 92.2441L725.627 90.4581C724.279 92.386 721.762 92.8084 719.894 91.4397C718.025 90.0711 717.587 87.4001 718.935 85.4722C720.284 83.5444 722.8 83.124 724.669 84.4926C724.907 84.6667 725.128 84.8658 725.325 85.0886L727.655 83.0202C727.311 82.6327 726.929 82.2837 726.512 81.9782C725.297 81.0892 723.893 80.6429 722.492 80.6071V80.6071Z" fill="#1A1A1A"/>
<path d="M719.438 88.2958H729.442C729.512 86.6616 729.225 85.3377 728.619 84.291L719.27 87.6651C719.103 87.7254 719.039 87.8449 719.039 87.9763C719.039 88.1416 719.184 88.2958 719.438 88.2958V88.2958Z" fill="#1A1A1A"/>
<path d="M729.741 81.1338L734.973 87.67L729.273 94.8275H733.683L736.869 90.5973L740.055 94.8275H744.465L738.854 87.67L743.997 81.1338H739.588L736.869 84.7427L734.15 81.1338H729.741Z" fill="#1A1A1A"/>
</g>
<g clip-path="url(#clip9_1249_2537)">
<circle cx="888" cy="88" r="87.5" stroke="#E5E5E5"/>
<g clip-path="url(#clip10_1249_2537)">
<path d="M846.354 80.4788L842.463 84.7411L851.105 96.0603L859.711 84.7411L855.819 80.4788H846.354ZM858.66 84.7879L856.392 87.7702C856.748 86.5257 856.681 86.4006 856.6 86.3796C856.48 86.3488 856.255 87.2374 855.921 87.1737C855.788 87.1485 855.66 86.8485 855.495 86.2891C855.319 85.6933 854.948 84.524 854.796 84.168C854.66 83.8488 854.454 83.9041 854.292 84.026C854.117 84.158 853.195 85.7967 853.063 85.9172C852.931 86.0378 852.746 86.0144 852.769 85.6659C852.785 85.4352 852.888 84.6534 852.937 83.7966C852.985 82.9664 852.411 82.9416 852.097 82.9918C851.783 83.0421 851.209 83.404 850.225 84.4395C849.266 85.4502 849.04 85.5453 848.898 85.3341C848.756 85.1231 848.766 84.7109 849.111 84.158C849.455 83.6051 850.689 81.9714 849.668 81.9062C848.401 81.8253 847.623 82.7878 847.195 83.3337C846.841 83.7861 846.101 85.3241 845.858 86.5204C845.773 86.9354 845.73 87.337 845.729 87.6868L843.514 84.7868L846.714 81.2829H855.46L858.66 84.7879ZM855.489 88.9578L851.103 94.7265L846.499 88.6959C847.233 88.1818 848.686 86.5598 849.08 86.1183C849.556 85.5854 851.011 83.9368 851.402 84.0638C851.796 84.2485 851.717 84.5703 851.675 85.0728C851.634 85.5602 851.188 87.007 851.057 87.5223C850.937 87.9881 850.872 89.1914 851.476 89.0168C851.962 88.8761 852.678 87.3447 852.921 86.9024C853.164 86.46 853.833 85.1432 854.087 85.1532C854.34 85.1633 854.579 86.0124 854.813 86.966C855.046 87.9187 855.21 88.5428 855.488 88.9565C855.489 88.9569 855.489 88.9574 855.489 88.9578Z" fill="#1A1A1A"/>
<path d="M891.903 87.4478C891.903 89.9114 888.234 91.9087 883.708 91.9087C879.182 91.9087 875.513 89.9114 875.513 87.4478C875.513 84.9841 879.182 82.9868 883.708 82.9868C888.234 82.9868 891.903 84.9841 891.903 87.4478V87.4478ZM922.099 91.5581H919.194L917.477 89.5322H911.053L909.37 91.5581H908.221L915.108 83.2985L922.099 91.5581ZM906.829 83.2985V91.5581H903.667V84.0778H897.027V91.5581H893.866V83.2985H906.829ZM889.07 87.4478C889.07 85.3499 886.669 83.6491 883.708 83.6491C880.747 83.6491 878.346 85.3499 878.346 87.4478C878.346 89.5457 880.747 91.2465 883.708 91.2465C886.669 91.2465 889.07 89.5457 889.07 87.4478V87.4478ZM875.369 84.0778H872.048V91.5581H868.886V84.0778H865.566V83.2985H875.369V84.0778ZM865.665 94.6756V93.983H933.879V94.6756H865.665ZM916.961 88.9088L914.249 85.7067L911.58 88.9088H916.961ZM922.833 84.6743C923.453 83.7555 925.41 83.0843 927.726 83.0843C930.545 83.0843 932.827 84.0742 932.827 85.2952C932.827 86.1418 931.729 86.8768 930.119 87.2483C932.089 87.4838 933.457 88.0973 933.457 89.3957C933.457 90.6492 930.905 91.6652 927.757 91.6652C925.635 91.6652 923.786 91.2044 922.802 90.5206L923.612 90.3351C924.295 90.8135 925.465 91.1295 926.805 91.1295C928.914 91.1295 930.614 90.3446 930.614 89.3763C930.614 88.408 928.883 87.6231 926.774 87.6231L924.693 87.662V87.1945H926.902C928.612 87.1945 929.98 86.3609 929.98 85.3927C929.98 84.4243 928.578 83.5907 926.867 83.5907C925.489 83.5907 924.284 84.1195 923.879 84.8236L922.833 84.6743Z" fill="#1A1A1A"/>
</g>
</g>
<g clip-path="url(#clip11_1249_2537)">
<circle cx="1048" cy="88" r="87.5" stroke="#E5E5E5"/>
<g clip-path="url(#clip12_1249_2537)">
<path fill-rule="evenodd" clip-rule="evenodd" d="M1012.17 77.6621C1006.59 77.6621 1002.12 82.1348 1002.12 87.7103C1002.12 93.2245 1006.59 97.7585 1012.17 97.7585C1017.74 97.7585 1022.22 93.2858 1022.22 87.7103C1022.22 82.1348 1017.74 77.6621 1012.17 77.6621ZM1012.35 83.6052C1011.43 83.544 1010.57 84.1566 1010.21 85.1982L1008.37 90.5287H1014.37C1015.72 90.5287 1016.52 89.6096 1016.58 89.1807H1010.45L1012.35 83.6052Z" fill="#1A1A1A"/>
<path d="M1028.96 90.4061H1036.18V88.4455H1031.77V83.1763H1028.96V90.4061Z" fill="#1A1A1A"/>
<path d="M1041.88 87.649C1041.88 89.916 1043.29 90.6511 1046.17 90.6511C1049.11 90.6511 1050.46 89.9772 1050.46 87.649V83.1763H1047.64V87.5264C1047.64 88.4454 1047.09 88.7518 1046.17 88.7518C1045.25 88.7518 1044.7 88.4454 1044.7 87.5264V83.1763H1041.88V87.649Z" fill="#1A1A1A"/>
<path d="M1062.84 90.4061H1065.66V83.1763H1062.84V85.6883H1059.59V83.1763H1056.77V90.4061H1059.59V87.5264H1062.84V90.4061Z" fill="#1A1A1A"/>
<path d="M1073.99 90.4061H1076.81V85.0144H1079.44V83.1763H1071.35V85.0144H1073.99V90.4061Z" fill="#1A1A1A"/>
<path d="M1089.43 87.8328H1087.71L1088.57 85.382L1089.43 87.8328ZM1083.79 90.4061H1086.79L1087.1 89.6096H1090.04L1090.35 90.4061H1093.35L1090.35 83.1763H1086.85L1083.79 90.4061Z" fill="#1A1A1A"/>
</g>
</g>
<g clip-path="url(#clip13_1249_2537)">
<circle cx="1208" cy="88" r="87.5" stroke="#E5E5E5"/>
<g clip-path="url(#clip14_1249_2537)">
<path d="M1219.46 66.188L1218.63 74.0335L1214.51 71.3171L1217.49 74.7682L1207.41 75.33L1217.44 75.9119L1212.92 79.1791L1218.61 76.6191L1219.48 81.88L1220.51 76.0784L1241.2 75.33L1221.39 74.7435L1225.11 71.2851L1220.38 73.9914L1219.46 66.188Z" fill="#1A1A1A"/>
<path d="M1169.39 91.1224L1173.22 83.3811H1176.65V83.5742H1176.37C1174.98 83.5742 1175.01 84.3143 1175.01 84.6227V92.4618C1175.01 92.7728 1174.98 93.5076 1176.37 93.5076H1176.65V93.7015H1171.57V93.5076H1171.84C1173.24 93.5076 1173.21 92.7728 1173.21 92.4618V85.0014L1168.9 93.7015H1168.76L1164.49 84.9758V92.4627C1164.49 92.7738 1164.45 93.5085 1165.85 93.5085H1166.13V93.7024H1162.12V93.5085H1162.4C1163.79 93.5085 1163.76 92.7738 1163.76 92.4627V84.6236C1163.76 84.3143 1163.79 83.5751 1162.4 83.5751H1162.12V83.382H1165.54L1169.39 91.1224Z" fill="#1A1A1A"/>
<path d="M1183.31 83.3811V83.5732H1183.03C1181.64 83.5732 1181.67 84.3134 1181.67 84.6227V92.4618C1181.67 92.7728 1181.64 93.5075 1183.03 93.5075H1183.31V93.7015H1178.23V93.5075H1178.51C1179.9 93.5075 1179.87 92.7728 1179.87 92.4618V84.6236C1179.87 84.3134 1179.9 83.5742 1178.51 83.5742H1178.23V83.382H1183.31V83.3811Z" fill="#1A1A1A"/>
<path d="M1191.46 93.0083C1193.05 93.0083 1193.82 92.5508 1194.43 91.0751L1194.63 91.1236L1193.8 93.7028H1184.89V93.5097H1185.16C1186.56 93.5097 1186.53 92.7741 1186.53 92.463V84.6239C1186.53 84.3147 1186.56 83.5745 1185.16 83.5745H1184.89V83.3823H1189.97V83.5745H1189.69C1188.3 83.5745 1188.33 84.3156 1188.33 84.6239V93.0083H1191.46Z" fill="#1A1A1A"/>
<path d="M1194.42 93.7026H1197.67V93.5086C1197.16 93.4949 1196.5 93.3357 1196.5 92.8453C1196.5 92.6541 1196.6 92.4784 1196.69 92.2863L1197.62 90.3274H1201.91L1202.85 92.3C1202.91 92.4464 1202.96 92.6843 1202.96 92.8599C1202.96 93.1408 1202.83 93.3467 1201.82 93.5077V93.7017H1206.37V93.5077C1205.36 93.3906 1205.18 93.096 1204.7 92.1097L1200.36 83.2495H1200.22L1195.9 92.1097C1195.52 92.8599 1195.17 93.4061 1194.42 93.5077V93.7026ZM1199.76 85.8424L1201.61 89.6906H1197.93L1199.76 85.8424Z" fill="#1A1A1A"/>
<path d="M1206.7 76.438L1206.67 76.7894C1206.67 76.7894 1203.27 76.8387 1204.35 79.4243C1204.92 80.7958 1211.09 94.1391 1211.09 94.1391L1217.24 77.9943L1217.62 79.9623L1210.97 97.2526H1210.53C1210.53 97.2526 1202.83 81.417 1201.98 79.6878C1201.11 78.03 1200.83 76.8561 1198.13 76.8204V76.438H1206.7Z" fill="#1A1A1A"/>
<path d="M1222.08 83.3811V83.5732H1221.8C1220.41 83.5732 1220.44 84.3134 1220.44 84.6227V92.4618C1220.44 92.7728 1220.41 93.5075 1221.8 93.5075H1222.08V93.7015H1217V93.5075H1217.28C1218.67 93.5075 1218.64 92.7728 1218.64 92.4618V84.6236C1218.64 84.3134 1218.67 83.5742 1217.28 83.5742H1217V83.382H1222.08V83.3811Z" fill="#1A1A1A"/>
<path d="M1232.73 83.3811L1232.88 85.7114H1232.65C1232.62 85.1945 1232.39 84.0765 1230.6 84.0765H1228.8V92.4627C1228.8 92.7738 1228.77 93.5085 1230.16 93.5085H1230.44V93.7024H1225.36V93.5085H1225.63C1227.03 93.5085 1227 92.7738 1227 92.4627V84.0765H1225.19C1223.41 84.0765 1223.18 85.1945 1223.15 85.7114H1222.92L1223.07 83.3811H1232.73Z" fill="#1A1A1A"/>
<path d="M1240.46 86.5671H1240.25C1240.16 84.783 1238.56 83.8406 1237.34 83.8406C1236.47 83.8406 1235.51 84.3713 1235.51 85.2551C1235.51 86.4784 1237.22 87.1865 1238.52 87.8782C1239.81 88.5717 1241.2 89.4281 1241.2 91.0475C1241.2 92.4474 1239.93 93.8344 1237.56 93.8344C1236.24 93.8344 1236.16 93.4364 1235.07 93.3358C1234.99 93.3184 1234.9 93.3184 1234.82 93.3358C1234.49 93.376 1234.31 93.6002 1234.26 93.8344H1234.05V90.354H1234.28C1234.56 91.8728 1235.66 93.1995 1237.43 93.1995C1238.65 93.1995 1239.52 92.5946 1239.52 91.6532C1239.52 90.3284 1238.14 89.59 1236.89 88.9541C1235.09 88.0411 1234.04 87.245 1234.04 85.8589C1234.04 84.3996 1235.37 83.2505 1237.23 83.2505C1238.71 83.2505 1239.25 83.7363 1239.73 83.7363C1239.94 83.7363 1240.21 83.5451 1240.28 83.2505H1240.46V86.5671H1240.46Z" fill="#1A1A1A"/>
<path d="M1241.51 93.7026H1244.76V93.5086C1244.25 93.4949 1243.59 93.3357 1243.59 92.8453C1243.59 92.6541 1243.69 92.4784 1243.78 92.2863L1244.71 90.3274H1248.99L1249.94 92.3C1250 92.4464 1250.05 92.6843 1250.05 92.8599C1250.05 93.1408 1249.92 93.3467 1248.91 93.5077V93.7017H1253.46V93.5077C1252.45 93.3906 1252.27 93.096 1251.79 92.1097L1247.45 83.2495H1247.31L1242.99 92.1097C1242.62 92.8599 1242.25 93.4061 1241.51 93.5077V93.7026H1241.51ZM1246.85 85.8424L1248.7 89.6906H1245.02L1246.85 85.8424Z" fill="#1A1A1A"/>
</g>
</g>
<defs>
<clipPath id="clip0_1249_2537">
<rect width="176" height="176" fill="white"/>
</clipPath>
<clipPath id="clip1_1249_2537">
<rect width="91.7605" height="34.4011" fill="white" transform="translate(42.1191 70.7007)"/>
</clipPath>
<clipPath id="clip2_1249_2537">
<rect width="176" height="176" fill="white" transform="translate(160)"/>
</clipPath>
<clipPath id="clip3_1249_2537">
<rect width="91.7605" height="22.0579" fill="white" transform="translate(202.119 82.7351)"/>
</clipPath>
<clipPath id="clip4_1249_2537">
<rect width="176" height="176" fill="white" transform="translate(320)"/>
</clipPath>
<clipPath id="clip5_1249_2537">
<rect width="55.6582" height="21.6973" fill="white" transform="translate(380.172 77.1543)"/>
</clipPath>
<clipPath id="clip6_1249_2537">
<rect width="176" height="176" fill="white" transform="translate(480)"/>
</clipPath>
<clipPath id="clip7_1249_2537">
<rect width="91.7605" height="19.695" fill="white" transform="translate(522.119 78.2224)"/>
</clipPath>
<clipPath id="clip8_1249_2537">
<rect width="176" height="176" fill="white" transform="translate(640)"/>
</clipPath>
<clipPath id="clip9_1249_2537">
<rect width="176" height="176" fill="white" transform="translate(800)"/>
</clipPath>
<clipPath id="clip10_1249_2537">
<rect width="91.7605" height="15.582" fill="white" transform="translate(842.119 80.4785)"/>
</clipPath>
<clipPath id="clip11_1249_2537">
<rect width="176" height="176" fill="white" transform="translate(960)"/>
</clipPath>
<clipPath id="clip12_1249_2537">
<rect width="91.7605" height="21.7467" fill="white" transform="translate(1002.12 77.1316)"/>
</clipPath>
<clipPath id="clip13_1249_2537">
<rect width="176" height="176" fill="white" transform="translate(1120)"/>
</clipPath>
<clipPath id="clip14_1249_2537">
<rect width="91.7605" height="31.0648" fill="white" transform="translate(1162.12 66.188)"/>
</clipPath>
</defs>
</svg>
