<?xml version="1.0" encoding="utf-8"?><svg width="18" height="18" xmlns="http://www.w3.org/2000/svg" viewBox="0 0 18 18"><g clip-path="url(#cclip0_1443_3804)"><path d="M14.625 6H12.75V4.5c0-.825-.675-1.5-1.5-1.5h-9c-.825 0-1.5.675-1.5 1.5v6.75c0 .825.675 1.5 1.5 1.5A2.247 2.247 0 004.5 15a2.247 2.247 0 002.25-2.25h4.5A2.247 2.247 0 0013.5 15a2.247 2.247 0 002.25-2.25h.75c.413 0 .75-.338.75-.75V9.502a1.51 1.51 0 00-.3-.9L15.225 6.3a.76.76 0 00-.6-.3zM4.5 13.5a.752.752 0 01-.75-.75c0-.412.338-.75.75-.75s.75.338.75.75-.338.75-.75.75zm10.125-6.375L16.095 9H12.75V7.125h1.875zM13.5 13.5a.752.752 0 01-.75-.75c0-.412.338-.75.75-.75s.75.338.75.75-.338.75-.75.75z"/></g><defs><clipPath id="cclip0_1443_3804"><path fill="#fff" d="M0 0h18v18H0z"/></clipPath></defs></svg>