<?xml version="1.0" encoding="utf-8"?><svg width="48" height="48" xmlns="http://www.w3.org/2000/svg" viewBox="0 0 48 48"><rect width="48" height="48" rx="24" fill="#fff"/><g clip-path="url(#iclip0_2127_7565)"><path d="M17 31c0 .55.45 1 1 1h12c.55 0 1-.45 1-1s-.45-1-1-1H18c-.55 0-1 .45-1 1z"/><path fill-rule="evenodd" clip-rule="evenodd" d="M24 15a1 1 0 011 1v10.5a1 1 0 11-2 0V16a1 1 0 011-1z"/><path fill-rule="evenodd" clip-rule="evenodd" d="M29.707 20.793a1 1 0 010 1.414l-5 5a1 1 0 01-1.414-1.414l5-5a1 1 0 011.414 0z"/><path fill-rule="evenodd" clip-rule="evenodd" d="M18.293 20.793a1 1 0 011.414 0l5 5a1 1 0 01-1.414 1.414l-5-5a1 1 0 010-1.414z"/></g><defs><clipPath id="iclip0_2127_7565"><path fill="#fff" transform="translate(12 12)" d="M0 0h24v24H0z"/></clipPath></defs></svg>