<?xml version="1.0" encoding="utf-8"?><svg width="24" height="24" fill="none" xmlns="http://www.w3.org/2000/svg" viewBox="0 0 24 24"><g clip-path="url(#fclip0_2097_6584)" fill="#282828"><path d="M5 19c0 .55.45 1 1 1h12c.55 0 1-.45 1-1s-.45-1-1-1H6c-.55 0-1 .45-1 1z"/><path fill-rule="evenodd" clip-rule="evenodd" d="M12 3a1 1 0 011 1v10.5a1 1 0 11-2 0V4a1 1 0 011-1z"/><path fill-rule="evenodd" clip-rule="evenodd" d="M17.707 8.793a1 1 0 010 1.414l-5 5a1 1 0 01-1.414-1.414l5-5a1 1 0 011.414 0z"/><path fill-rule="evenodd" clip-rule="evenodd" d="M6.293 8.793a1 1 0 011.414 0l5 5a1 1 0 01-1.414 1.414l-5-5a1 1 0 010-1.414z"/></g><defs><clipPath id="fclip0_2097_6584"><path fill="#fff" d="M0 0h24v24H0z"/></clipPath></defs></svg>