<?xml version="1.0" encoding="utf-8"?><svg width="18" height="18" fill="none" xmlns="http://www.w3.org/2000/svg" viewBox="0 0 18 18"><g clip-path="url(#hclip0_1445_3832)"><path d="M9 16.5c3.42 0 6.247-2.55 6.69-5.85a.753.753 0 00-.84-.84C11.55 10.252 9 13.08 9 16.5zM4.2 7.687a1.876 1.876 0 002.94 1.545l-.015.143a1.876 1.876 0 003.75 0l-.015-.143a1.876 1.876 0 002.94-1.545c0-.75-.443-1.387-1.073-1.687.63-.3 1.073-.938 1.073-1.688a1.876 1.876 0 00-2.94-1.545l.015-.142a1.876 1.876 0 00-3.75 0l.015.143A1.876 1.876 0 004.2 4.313c0 .75.442 1.387 1.072 1.687-.63.3-1.072.938-1.072 1.688zM9 4.126a1.876 1.876 0 11-.002 3.751A1.876 1.876 0 019 4.125zM2.31 10.65c.442 3.3 3.27 5.85 6.69 5.85 0-3.42-2.55-6.248-5.85-6.69a.753.753 0 00-.84.84z" fill="#282828"/></g><defs><clipPath id="hclip0_1445_3832"><path fill="#fff" d="M0 0h18v18H0z"/></clipPath></defs></svg>