<?xml version="1.0" encoding="utf-8"?><svg width="24" height="24" fill="none" xmlns="http://www.w3.org/2000/svg" viewBox="0 0 24 24"><g clip-path="url(#iclip0_2117_7063)"><path d="M12 4.929L9.877 7.05a1.003 1.003 0 000 1.415 1.003 1.003 0 001.414 0l2.121-2.122a3.009 3.009 0 014.243 0 3.009 3.009 0 010 4.243l-2.121 2.121a1.003 1.003 0 000 1.414 1.003 1.003 0 001.414 0l2.121-2.12a5.002 5.002 0 000-7.072 5.002 5.002 0 00-7.07 0zm-2.83 9.9a1.003 1.003 0 001.415 0l4.243-4.243a1.003 1.003 0 000-1.414 1.003 1.003 0 00-1.415 0l-4.242 4.242a1.003 1.003 0 000 1.415zm3.536.707l-2.121 2.121a3.009 3.009 0 01-4.243 0 3.009 3.009 0 010-4.243l2.122-2.121a1.003 1.003 0 000-1.414 1.003 1.003 0 00-1.415 0L4.93 12a5.002 5.002 0 000 7.071 5.002 5.002 0 007.07 0l2.121-2.121a1.003 1.003 0 000-1.414 1.003 1.003 0 00-1.414 0z" fill="#282828"/></g><defs><clipPath id="iclip0_2117_7063"><path fill="#fff" d="M0 0h24v24H0z"/></clipPath></defs></svg>