<?xml version="1.0" encoding="utf-8"?><svg width="18" height="18" fill="none" xmlns="http://www.w3.org/2000/svg" viewBox="0 0 18 18"><g clip-path="url(#lclip0_1443_3818)"><path d="M10.988 3.735l-3.75-1.313a1.498 1.498 0 00-.976-.007L3.27 3.42a1.51 1.51 0 00-1.02 1.425v8.887a1.495 1.495 0 002.04 1.396l2.197-.855a.724.724 0 01.518-.008l3.75 1.313c.315.112.66.112.975.007l2.992-1.005a1.503 1.503 0 001.02-1.425V4.268a1.495 1.495 0 00-2.04-1.396l-2.197.855a.766.766 0 01-.518.008zm.262 10.433l-4.5-1.583V3.832l4.5 1.583v8.753z" fill="#282828"/></g><defs><clipPath id="lclip0_1443_3818"><path fill="#fff" d="M0 0h18v18H0z"/></clipPath></defs></svg>