<?xml version="1.0" encoding="utf-8"?><svg width="24" height="24" xmlns="http://www.w3.org/2000/svg" viewBox="0 0 24 24"><g clip-path="url(#kclip0_2127_7427)" fill-rule="evenodd" clip-rule="evenodd"><path d="M2 8.5a5 5 0 015-5h10a5 5 0 015 5v7a5 5 0 01-5 5H7a5 5 0 01-5-5v-7zm5-3a3 3 0 00-3 3v7a3 3 0 003 3h10a3 3 0 003-3v-7a3 3 0 00-3-3H7z"/><path d="M6.313 8.684a.75.75 0 01.987-.388l4.204 1.833c.318.139.678.14.996.002l4.202-1.817a.75.75 0 01.596 1.377l-4.203 1.817a2.75 2.75 0 01-2.19-.004L6.7 9.671a.75.75 0 01-.387-.987z"/></g><defs><clipPath id="kclip0_2127_7427"><path fill="#fff" d="M0 0h24v24H0z"/></clipPath></defs></svg>