<?xml version="1.0" encoding="utf-8"?><svg width="20" height="22" fill="none" xmlns="http://www.w3.org/2000/svg" viewBox="0 0 20 22"><path fill-rule="evenodd" clip-rule="evenodd" d="M4.698 5.995a1 1 0 010 1.414l-.986.987a2.5 2.5 0 003.535 3.535l4.088-4.087a4.5 4.5 0 116.364 6.364l-.98.98a1 1 0 11-1.414-1.415l.98-.98a2.5 2.5 0 10-3.536-3.535L8.66 13.345a4.5 4.5 0 01-6.363-6.364l.986-.986a1 1 0 011.414 0z" fill="#282828"/><path d="M9.861.218a.5.5 0 01.614.614L8.811 6.935a.5.5 0 01-.836.222L3.536 2.718a.5.5 0 01.222-.835L9.861.218zM14.242 20.848a3.25 3.25 0 11-4.597-4.597 3.25 3.25 0 014.597 4.597z" fill="#282828"/></svg>