<?xml version="1.0" encoding="utf-8"?><svg width="18" height="18" fill="none" xmlns="http://www.w3.org/2000/svg" viewBox="0 0 18 18"><g clip-path="url(#oclip0_1547_3471)"><path d="M9 1.5c-2.243 0-4.29.81-5.873 2.16-.532.457-.645 1.237-.3 1.845l5.52 9.832a.748.748 0 001.305 0l5.52-9.832c.345-.607.233-1.395-.3-1.845A9.033 9.033 0 009 1.5zM5.25 5.25c0-.825.675-1.5 1.5-1.5s1.5.675 1.5 1.5-.675 1.5-1.5 1.5-1.5-.675-1.5-1.5zm3.75 6c-.825 0-1.5-.675-1.5-1.5s.675-1.5 1.5-1.5 1.5.675 1.5 1.5-.675 1.5-1.5 1.5z" fill="#282828"/></g><defs><clipPath id="oclip0_1547_3471"><path fill="#fff" d="M0 0h18v18H0z"/></clipPath></defs></svg>