<svg width="48" height="48" viewBox="0 0 48 48" fill="none" xmlns="http://www.w3.org/2000/svg">
<rect width="48" height="48" rx="24" fill="white"/>
<g clip-path="url(#clip0_2127_7565)">
<path d="M17 31C17 31.55 17.45 32 18 32H30C30.55 32 31 31.55 31 31C31 30.45 30.55 30 30 30H18C17.45 30 17 30.45 17 31Z" fill="#282828"/>
<path fill-rule="evenodd" clip-rule="evenodd" d="M24 15C24.5523 15 25 15.4477 25 16V26.5C25 27.0523 24.5523 27.5 24 27.5C23.4477 27.5 23 27.0523 23 26.5V16C23 15.4477 23.4477 15 24 15Z" fill="#282828"/>
<path fill-rule="evenodd" clip-rule="evenodd" d="M29.7071 20.7929C30.0976 21.1834 30.0976 21.8166 29.7071 22.2071L24.7071 27.2071C24.3166 27.5976 23.6834 27.5976 23.2929 27.2071C22.9024 26.8166 22.9024 26.1834 23.2929 25.7929L28.2929 20.7929C28.6834 20.4024 29.3166 20.4024 29.7071 20.7929Z" fill="#282828"/>
<path fill-rule="evenodd" clip-rule="evenodd" d="M18.2929 20.7929C18.6834 20.4024 19.3166 20.4024 19.7071 20.7929L24.7071 25.7929C25.0976 26.1834 25.0976 26.8166 24.7071 27.2071C24.3166 27.5976 23.6834 27.5976 23.2929 27.2071L18.2929 22.2071C17.9024 21.8166 17.9024 21.1834 18.2929 20.7929Z" fill="#282828"/>
</g>
<defs>
<clipPath id="clip0_2127_7565">
<rect width="24" height="24" fill="white" transform="translate(12 12)"/>
</clipPath>
</defs>
</svg>
