<svg width="24" height="24" viewBox="0 0 24 24" fill="none" xmlns="http://www.w3.org/2000/svg">
<g clip-path="url(#clip0_2117_7063)">
<path d="M11.9992 4.92904L9.87786 7.05036C9.48895 7.43927 9.48895 8.07567 9.87786 8.46458C10.2668 8.85349 10.9032 8.85349 11.2921 8.46458L13.4134 6.34326C14.5801 5.17653 16.4893 5.17653 17.656 6.34326C18.8228 7.50998 18.8228 9.41917 17.656 10.5859L15.5347 12.7072C15.1458 13.0961 15.1458 13.7325 15.5347 14.1214C15.9236 14.5103 16.56 14.5103 16.9489 14.1214L19.0702 12.0001C21.0219 10.0485 21.0219 6.88066 19.0702 4.92904C17.1186 2.97743 13.9508 2.97743 11.9992 4.92904ZM9.17075 14.8285C9.55966 15.2174 10.1961 15.2174 10.585 14.8285L14.8276 10.5859C15.2165 10.197 15.2165 9.56059 14.8276 9.17168C14.4387 8.78277 13.8023 8.78277 13.4134 9.17168L9.17075 13.4143C8.78184 13.8032 8.78184 14.4396 9.17075 14.8285ZM12.7063 15.5356L10.585 17.657C9.41824 18.8237 7.50905 18.8237 6.34233 17.657C5.1756 16.4902 5.1756 14.5811 6.34233 13.4143L8.46365 11.293C8.85255 10.9041 8.85255 10.2677 8.46365 9.87879C8.07474 9.48988 7.43834 9.48988 7.04943 9.87879L4.92811 12.0001C2.9765 13.9517 2.9765 17.1196 4.92811 19.0712C6.87973 21.0228 10.0476 21.0228 11.9992 19.0712L14.1205 16.9499C14.5094 16.5609 14.5094 15.9246 14.1205 15.5356C13.7316 15.1467 13.0952 15.1467 12.7063 15.5356Z" fill="#282828"/>
</g>
<defs>
<clipPath id="clip0_2117_7063">
<rect width="24" height="24" fill="white"/>
</clipPath>
</defs>
</svg>
