<svg width="24" height="24" viewBox="0 0 24 24" fill="none" xmlns="http://www.w3.org/2000/svg">
<g clip-path="url(#clip0_2127_7427)">
<path fill-rule="evenodd" clip-rule="evenodd" d="M2 8.5C2 5.73858 4.23858 3.5 7 3.5H17C19.7614 3.5 22 5.73858 22 8.5V15.5C22 18.2614 19.7614 20.5 17 20.5H7C4.23858 20.5 2 18.2614 2 15.5V8.5ZM7 5.5C5.34315 5.5 4 6.84315 4 8.5V15.5C4 17.1569 5.34315 18.5 7 18.5H17C18.6569 18.5 20 17.1569 20 15.5V8.5C20 6.84315 18.6569 5.5 17 5.5H7Z" fill="#282828"/>
<path fill-rule="evenodd" clip-rule="evenodd" d="M6.31251 8.68389C6.47805 8.3042 6.92006 8.1306 7.29975 8.29615L11.5044 10.1294C11.8218 10.2678 12.1823 10.2683 12.5001 10.1309L16.7023 8.31386C17.0825 8.14947 17.524 8.32441 17.6884 8.7046C17.8528 9.08479 17.6779 9.52627 17.2977 9.69066L13.0954 11.5077C12.3963 11.81 11.6031 11.8088 10.9049 11.5044L6.70025 9.67114C6.32056 9.50559 6.14696 9.06358 6.31251 8.68389Z" fill="#282828"/>
</g>
<defs>
<clipPath id="clip0_2127_7427">
<rect width="24" height="24" fill="white"/>
</clipPath>
</defs>
</svg>
