<svg width="18" height="18" viewBox="0 0 18 18" fill="none" xmlns="http://www.w3.org/2000/svg">
<g clip-path="url(#clip0_1547_3471)">
<path d="M8.99956 1.5C6.75706 1.5 4.70956 2.31 3.12706 3.66C2.59456 4.1175 2.48206 4.8975 2.82706 5.505L8.34706 15.3375C8.63206 15.8475 9.36706 15.8475 9.65206 15.3375L15.1721 5.505C15.5171 4.8975 15.4046 4.11 14.8721 3.66C13.2971 2.3175 11.2421 1.5 8.99956 1.5ZM5.24956 5.25C5.24956 4.425 5.92456 3.75 6.74956 3.75C7.57456 3.75 8.24956 4.425 8.24956 5.25C8.24956 6.075 7.57456 6.75 6.74956 6.75C5.92456 6.75 5.24956 6.075 5.24956 5.25ZM8.99956 11.25C8.17456 11.25 7.49956 10.575 7.49956 9.75C7.49956 8.925 8.17456 8.25 8.99956 8.25C9.82456 8.25 10.4996 8.925 10.4996 9.75C10.4996 10.575 9.82456 11.25 8.99956 11.25Z" fill="#282828"/>
</g>
<defs>
<clipPath id="clip0_1547_3471">
<rect width="18" height="18" fill="white"/>
</clipPath>
</defs>
</svg>
