<?xml version="1.0" encoding="utf-8"?><svg viewBox="0 0 48 48" xmlns="http://www.w3.org/2000/svg" xmlns:xlink="http://www.w3.org/1999/xlink"><style>:root>svg{display:none}:root>svg:target{display:block}</style><svg viewBox="0 0 40 40" id="arrow-left" xmlns="http://www.w3.org/2000/svg"><rect width="40" height="40" rx="20" fill="#fff"/><g clip-path="url(#aclip0_904_1215)"><path d="M22.71 14.71a.996.996 0 00-1.41 0l-4.59 4.59a.996.996 0 000 1.41l4.59 4.59a.996.996 0 101.41-1.41L18.83 20l3.88-3.88c.39-.39.38-1.03 0-1.41z"/></g><defs><clipPath id="aclip0_904_1215"><path fill="#fff" transform="translate(8 8)" d="M0 0h24v24H0z"/></clipPath></defs></svg><svg viewBox="0 0 40 40" id="arrow-right" xmlns="http://www.w3.org/2000/svg"><rect width="40" height="40" rx="20" fill="#fff"/><g clip-path="url(#bclip0_905_1237)"><path d="M17.29 14.71a.996.996 0 000 1.41L21.17 20l-3.88 3.88a.996.996 0 101.41 1.41l4.59-4.59a.996.996 0 000-1.41L18.7 14.7c-.38-.38-1.02-.38-1.41.01z"/></g><defs><clipPath id="bclip0_905_1237"><path fill="#fff" transform="translate(8 8)" d="M0 0h24v24H0z"/></clipPath></defs></svg><svg viewBox="0 0 18 18" id="i-car" xmlns="http://www.w3.org/2000/svg"><g clip-path="url(#cclip0_1443_3804)"><path d="M14.625 6H12.75V4.5c0-.825-.675-1.5-1.5-1.5h-9c-.825 0-1.5.675-1.5 1.5v6.75c0 .825.675 1.5 1.5 1.5A2.247 2.247 0 004.5 15a2.247 2.247 0 002.25-2.25h4.5A2.247 2.247 0 0013.5 15a2.247 2.247 0 002.25-2.25h.75c.413 0 .75-.338.75-.75V9.502a1.51 1.51 0 00-.3-.9L15.225 6.3a.76.76 0 00-.6-.3zM4.5 13.5a.752.752 0 01-.75-.75c0-.412.338-.75.75-.75s.75.338.75.75-.338.75-.75.75zm10.125-6.375L16.095 9H12.75V7.125h1.875zM13.5 13.5a.752.752 0 01-.75-.75c0-.412.338-.75.75-.75s.75.338.75.75-.338.75-.75.75z"/></g><defs><clipPath id="cclip0_1443_3804"><path fill="#fff" d="M0 0h18v18H0z"/></clipPath></defs></svg><svg viewBox="0 0 24 24" id="i-check" xmlns="http://www.w3.org/2000/svg"><g clip-path="url(#dclip0_2013_5762)"><path d="M9 16.17L5.53 12.7a.996.996 0 10-1.41 1.41l4.18 4.18c.39.39 1.02.39 1.41 0L20.29 7.71a.996.996 0 10-1.41-1.41L9 16.17z"/></g><defs><clipPath id="dclip0_2013_5762"><path fill="#fff" d="M0 0h24v24H0z"/></clipPath></defs></svg><svg viewBox="0 0 24 24" id="i-clock" xmlns="http://www.w3.org/2000/svg"><g clip-path="url(#eclip0_2097_6586)"><path d="M11.99 2C6.47 2 2 6.48 2 12s4.47 10 9.99 10C17.52 22 22 17.52 22 12S17.52 2 11.99 2zM12 20c-4.42 0-8-3.58-8-8s3.58-8 8-8 8 3.58 8 8-3.58 8-8 8zm-.22-13h-.06c-.4 0-.72.32-.72.72v4.72c0 .35.18.68.49.86l4.15 2.49c.34.2.78.1.98-.24a.71.71 0 00-.25-.99l-3.87-2.3V7.72c0-.4-.32-.72-.72-.72z"/></g><defs><clipPath id="eclip0_2097_6586"><path fill="#fff" d="M0 0h24v24H0z"/></clipPath></defs></svg><svg viewBox="0 0 16 16" id="i-discount" xmlns="http://www.w3.org/2000/svg"><path fill-rule="evenodd" clip-rule="evenodd" d="M8 16A8 8 0 108 0a8 8 0 000 16zM7.333 5.667a1.667 1.667 0 11-3.333 0 1.667 1.667 0 013.333 0zM12 10.333a1.667 1.667 0 11-3.333 0 1.667 1.667 0 013.333 0zm-.862-4.528a.667.667 0 00-.943-.943l-5.333 5.333a.667.667 0 10.943.943l5.333-5.333z" fill="#FF5E00"/></svg><svg viewBox="0 0 48 48" id="i-download" xmlns="http://www.w3.org/2000/svg"><rect width="48" height="48" rx="24" fill="#fff"/><g clip-path="url(#gclip0_2127_7565)"><path d="M17 31c0 .55.45 1 1 1h12c.55 0 1-.45 1-1s-.45-1-1-1H18c-.55 0-1 .45-1 1z"/><path fill-rule="evenodd" clip-rule="evenodd" d="M24 15a1 1 0 011 1v10.5a1 1 0 11-2 0V16a1 1 0 011-1z"/><path fill-rule="evenodd" clip-rule="evenodd" d="M29.707 20.793a1 1 0 010 1.414l-5 5a1 1 0 01-1.414-1.414l5-5a1 1 0 011.414 0z"/><path fill-rule="evenodd" clip-rule="evenodd" d="M18.293 20.793a1 1 0 011.414 0l5 5a1 1 0 01-1.414 1.414l-5-5a1 1 0 010-1.414z"/></g><defs><clipPath id="gclip0_2127_7565"><path fill="#fff" transform="translate(12 12)" d="M0 0h24v24H0z"/></clipPath></defs></svg><svg viewBox="0 0 18 18" id="i-flower" xmlns="http://www.w3.org/2000/svg"><g clip-path="url(#hclip0_1445_3832)"><path d="M9 16.5c3.42 0 6.247-2.55 6.69-5.85a.753.753 0 00-.84-.84C11.55 10.252 9 13.08 9 16.5zM4.2 7.687a1.876 1.876 0 002.94 1.545l-.015.143a1.876 1.876 0 003.75 0l-.015-.143a1.876 1.876 0 002.94-1.545c0-.75-.443-1.387-1.073-1.687.63-.3 1.073-.938 1.073-1.688a1.876 1.876 0 00-2.94-1.545l.015-.142a1.876 1.876 0 00-3.75 0l.015.143A1.876 1.876 0 004.2 4.313c0 .75.442 1.387 1.072 1.687-.63.3-1.072.938-1.072 1.688zM9 4.126a1.876 1.876 0 11-.002 3.751A1.876 1.876 0 019 4.125zM2.31 10.65c.442 3.3 3.27 5.85 6.69 5.85 0-3.42-2.55-6.248-5.85-6.69a.753.753 0 00-.84.84z"/></g><defs><clipPath id="hclip0_1445_3832"><path fill="#fff" d="M0 0h18v18H0z"/></clipPath></defs></svg><svg viewBox="0 0 18 18" id="i-geo" xmlns="http://www.w3.org/2000/svg"><g clip-path="url(#iclip0_1443_3810)"><path d="M9 1.5c-3.15 0-6 2.415-6 6.15 0 2.385 1.838 5.19 5.505 8.423a.763.763 0 00.997 0C13.162 12.84 15 10.035 15 7.65c0-3.735-2.85-6.15-6-6.15zM9 9c-.825 0-1.5-.675-1.5-1.5S8.175 6 9 6s1.5.675 1.5 1.5S9.825 9 9 9z"/></g><defs><clipPath id="iclip0_1443_3810"><path fill="#fff" d="M0 0h18v18H0z"/></clipPath></defs></svg><svg viewBox="0 0 24 24" id="i-link" xmlns="http://www.w3.org/2000/svg"><g clip-path="url(#jclip0_2117_7063)"><path d="M12 4.929L9.877 7.05a1.003 1.003 0 000 1.415 1.003 1.003 0 001.414 0l2.121-2.122a3.009 3.009 0 014.243 0 3.009 3.009 0 010 4.243l-2.121 2.121a1.003 1.003 0 000 1.414 1.003 1.003 0 001.414 0l2.121-2.12a5.002 5.002 0 000-7.072 5.002 5.002 0 00-7.07 0zm-2.83 9.9a1.003 1.003 0 001.415 0l4.243-4.243a1.003 1.003 0 000-1.414 1.003 1.003 0 00-1.415 0l-4.242 4.242a1.003 1.003 0 000 1.415zm3.536.707l-2.121 2.121a3.009 3.009 0 01-4.243 0 3.009 3.009 0 010-4.243l2.122-2.121a1.003 1.003 0 000-1.414 1.003 1.003 0 00-1.415 0L4.93 12a5.002 5.002 0 000 7.071 5.002 5.002 0 007.07 0l2.121-2.121a1.003 1.003 0 000-1.414 1.003 1.003 0 00-1.414 0z" fill="#fff"/></g><defs><clipPath id="jclip0_2117_7063"><path fill="#fff" d="M0 0h24v24H0z"/></clipPath></defs></svg><svg viewBox="0 0 24 24" id="i-mail" xmlns="http://www.w3.org/2000/svg"><g clip-path="url(#kclip0_2127_7427)" fill-rule="evenodd" clip-rule="evenodd"><path d="M2 8.5a5 5 0 015-5h10a5 5 0 015 5v7a5 5 0 01-5 5H7a5 5 0 01-5-5v-7zm5-3a3 3 0 00-3 3v7a3 3 0 003 3h10a3 3 0 003-3v-7a3 3 0 00-3-3H7z"/><path d="M6.313 8.684a.75.75 0 01.987-.388l4.204 1.833c.318.139.678.14.996.002l4.202-1.817a.75.75 0 01.596 1.377l-4.203 1.817a2.75 2.75 0 01-2.19-.004L6.7 9.671a.75.75 0 01-.387-.987z"/></g><defs><clipPath id="kclip0_2127_7427"><path fill="#fff" d="M0 0h24v24H0z"/></clipPath></defs></svg><svg viewBox="0 0 18 18" id="i-map" xmlns="http://www.w3.org/2000/svg"><g clip-path="url(#lclip0_1443_3818)"><path d="M10.988 3.735l-3.75-1.313a1.498 1.498 0 00-.976-.007L3.27 3.42a1.51 1.51 0 00-1.02 1.425v8.887a1.495 1.495 0 002.04 1.396l2.197-.855a.724.724 0 01.518-.008l3.75 1.313c.315.112.66.112.975.007l2.992-1.005a1.503 1.503 0 001.02-1.425V4.268a1.495 1.495 0 00-2.04-1.396l-2.197.855a.766.766 0 01-.518.008zm.262 10.433l-4.5-1.583V3.832l4.5 1.583v8.753z"/></g><defs><clipPath id="lclip0_1443_3818"><path fill="#fff" d="M0 0h18v18H0z"/></clipPath></defs></svg><svg viewBox="0 0 20 22" id="i-path" xmlns="http://www.w3.org/2000/svg"><path fill-rule="evenodd" clip-rule="evenodd" d="M4.698 5.995a1 1 0 010 1.414l-.986.987a2.5 2.5 0 003.535 3.535l4.088-4.087a4.5 4.5 0 116.364 6.364l-.98.98a1 1 0 11-1.414-1.415l.98-.98a2.5 2.5 0 10-3.536-3.535L8.66 13.345a4.5 4.5 0 01-6.363-6.364l.986-.986a1 1 0 011.414 0z"/><path d="M9.861.218a.5.5 0 01.614.614L8.811 6.935a.5.5 0 01-.836.222L3.536 2.718a.5.5 0 01.222-.835L9.861.218zM14.242 20.848a3.25 3.25 0 11-4.597-4.597 3.25 3.25 0 014.597 4.597z"/></svg><svg viewBox="0 0 24 24" id="i-phone" xmlns="http://www.w3.org/2000/svg"><path d="M15.5 1h-8A2.5 2.5 0 005 3.5v17A2.5 2.5 0 007.5 23h8a2.5 2.5 0 002.5-2.5v-17A2.5 2.5 0 0015.5 1zm-4 21c-.83 0-1.5-.67-1.5-1.5s.67-1.5 1.5-1.5 1.5.67 1.5 1.5-.67 1.5-1.5 1.5zm4.5-4H7V4h9v14z"/></svg><svg viewBox="0 0 18 18" id="i-pizza" xmlns="http://www.w3.org/2000/svg"><g clip-path="url(#oclip0_1547_3471)"><path d="M9 1.5c-2.243 0-4.29.81-5.873 2.16-.532.457-.645 1.237-.3 1.845l5.52 9.832a.748.748 0 001.305 0l5.52-9.832c.345-.607.233-1.395-.3-1.845A9.033 9.033 0 009 1.5zM5.25 5.25c0-.825.675-1.5 1.5-1.5s1.5.675 1.5 1.5-.675 1.5-1.5 1.5-1.5-.675-1.5-1.5zm3.75 6c-.825 0-1.5-.675-1.5-1.5s.675-1.5 1.5-1.5 1.5.675 1.5 1.5-.675 1.5-1.5 1.5z"/></g><defs><clipPath id="oclip0_1547_3471"><path fill="#fff" d="M0 0h18v18H0z"/></clipPath></defs></svg><svg viewBox="0 0 24 24" id="i-ul" xmlns="http://www.w3.org/2000/svg"><g clip-path="url(#pclip0_2097_6583)"><path d="M4 10.5c-.83 0-1.5.67-1.5 1.5s.67 1.5 1.5 1.5 1.5-.67 1.5-1.5-.67-1.5-1.5-1.5zm0-6c-.83 0-1.5.67-1.5 1.5S3.17 7.5 4 7.5 5.5 6.83 5.5 6 4.83 4.5 4 4.5zm0 12c-.83 0-1.5.68-1.5 1.5s.68 1.5 1.5 1.5 1.5-.68 1.5-1.5-.67-1.5-1.5-1.5zM8 19h12c.55 0 1-.45 1-1s-.45-1-1-1H8c-.55 0-1 .45-1 1s.45 1 1 1zm0-6h12c.55 0 1-.45 1-1s-.45-1-1-1H8c-.55 0-1 .45-1 1s.45 1 1 1zM7 6c0 .55.45 1 1 1h12c.55 0 1-.45 1-1s-.45-1-1-1H8c-.55 0-1 .45-1 1z"/></g><defs><clipPath id="pclip0_2097_6583"><path fill="#fff" d="M0 0h24v24H0z"/></clipPath></defs></svg><svg viewBox="0 0 40 40" id="orange-left-arrow" xmlns="http://www.w3.org/2000/svg"><rect width="40" height="40" rx="20" fill="#FF5E00"/><g clip-path="url(#qclip0_904_1224)"><path d="M22.71 14.71a.996.996 0 00-1.41 0l-4.59 4.59a.996.996 0 000 1.41l4.59 4.59a.996.996 0 101.41-1.41L18.83 20l3.88-3.88c.39-.39.38-1.03 0-1.41z" fill="#fff"/></g><defs><clipPath id="qclip0_904_1224"><path fill="#fff" transform="translate(8 8)" d="M0 0h24v24H0z"/></clipPath></defs></svg><svg viewBox="0 0 40 40" id="orange-right-arrow" xmlns="http://www.w3.org/2000/svg"><rect width="40" height="40" rx="20" fill="#FF5E00"/><g clip-path="url(#rclip0_905_1238)"><path d="M17.29 14.71a.996.996 0 000 1.41L21.17 20l-3.88 3.88a.996.996 0 101.41 1.41l4.59-4.59a.996.996 0 000-1.41L18.7 14.7c-.38-.38-1.02-.38-1.41.01z" fill="#fff"/></g><defs><clipPath id="rclip0_905_1238"><path fill="#fff" transform="translate(8 8)" d="M0 0h24v24H0z"/></clipPath></defs></svg><svg viewBox="0 0 40 40" id="slider-arrow-left" xmlns="http://www.w3.org/2000/svg"><path d="M0 12C0 5.373 5.373 0 12 0h16c6.627 0 12 5.373 12 12v28H0V12z" fill="#fff"/><g clip-path="url(#sclip0_2025_7311)"><path d="M22.71 14.71a.996.996 0 00-1.41 0l-4.59 4.59a.996.996 0 000 1.41l4.59 4.59a.996.996 0 101.41-1.41L18.83 20l3.88-3.88c.39-.39.38-1.03 0-1.41z"/></g><defs><clipPath id="sclip0_2025_7311"><path fill="#fff" transform="translate(8 8)" d="M0 0h24v24H0z"/></clipPath></defs></svg><svg fill="none" viewBox="0 0 40 40" id="slider-arrow-left-active" xmlns="http://www.w3.org/2000/svg"><path d="M0 12C0 5.373 5.373 0 12 0h16c6.627 0 12 5.373 12 12v28H0V12z" fill="#FF5E00"/><g clip-path="url(#tclip0_2025_7299)"><path d="M22.71 14.71a.996.996 0 00-1.41 0l-4.59 4.59a.996.996 0 000 1.41l4.59 4.59a.996.996 0 101.41-1.41L18.83 20l3.88-3.88c.39-.39.38-1.03 0-1.41z" fill="#fff"/></g><defs><clipPath id="tclip0_2025_7299"><path fill="#fff" transform="translate(8 8)" d="M0 0h24v24H0z"/></clipPath></defs></svg><svg viewBox="0 0 40 40" id="slider-arrow-right" xmlns="http://www.w3.org/2000/svg"><path d="M0 0h40v28c0 6.627-5.373 12-12 12H12C5.373 40 0 34.627 0 28V0z" fill="#fff"/><g clip-path="url(#uclip0_2025_7316)"><path d="M17.29 14.71a.996.996 0 000 1.41L21.17 20l-3.88 3.88a.996.996 0 101.41 1.41l4.59-4.59a.996.996 0 000-1.41L18.7 14.7c-.38-.38-1.02-.38-1.41.01z"/></g><defs><clipPath id="uclip0_2025_7316"><path fill="#fff" transform="translate(8 8)" d="M0 0h24v24H0z"/></clipPath></defs></svg><svg fill="none" viewBox="0 0 40 40" id="slider-arrow-right-active" xmlns="http://www.w3.org/2000/svg"><path d="M0 0h40v28c0 6.627-5.373 12-12 12H12C5.373 40 0 34.627 0 28V0z" fill="#FF5E00"/><g clip-path="url(#vclip0_2025_7301)"><path d="M17.29 14.71a.996.996 0 000 1.41L21.17 20l-3.88 3.88a.996.996 0 101.41 1.41l4.59-4.59a.996.996 0 000-1.41L18.7 14.7c-.38-.38-1.02-.38-1.41.01z" fill="#fff"/></g><defs><clipPath id="vclip0_2025_7301"><path fill="#fff" transform="translate(8 8)" d="M0 0h24v24H0z"/></clipPath></defs></svg></svg>