<svg width="40" height="40" viewBox="0 0 40 40" fill="none" xmlns="http://www.w3.org/2000/svg">
<rect width="40" height="40" rx="20" fill="white"/>
<path d="M13.1856 14.6667H11.1115C10.5189 14.6667 10.4004 14.9457 10.4004 15.2533C10.4004 15.8027 11.1035 18.5274 13.6744 22.131C15.3883 24.592 17.8031 25.926 20.0004 25.926C21.3188 25.926 21.4819 25.6297 21.4819 25.1193V23.2593C21.4819 22.6667 21.6068 22.5485 22.0243 22.5485C22.3319 22.5485 22.8592 22.7023 24.0898 23.8889C25.4961 25.2951 25.7279 25.926 26.5189 25.926H28.593C29.1856 25.926 29.4819 25.6297 29.3109 25.045C29.1239 24.4622 28.4525 23.6167 27.5616 22.6144C27.0781 22.0431 26.353 21.4279 26.1333 21.1202C25.8256 20.7247 25.9135 20.5489 26.1333 20.1973L26.1702 20.145C26.4827 19.7008 28.6791 16.5513 28.9239 15.4292C29.0557 14.9897 28.9239 14.6667 28.2967 14.6667H26.2226C25.6952 14.6667 25.4521 14.9457 25.3203 15.2533C25.3203 15.2533 24.2655 17.8242 22.7713 19.4942C22.2879 19.9776 22.0682 20.1314 21.8045 20.1314C21.6727 20.1314 21.4818 19.9776 21.4818 19.5381V15.4292C21.4818 14.9018 21.3288 14.6667 20.8893 14.6667H17.63C17.3005 14.6667 17.1023 14.9115 17.1023 15.1435C17.1023 15.6434 17.8493 15.7587 17.9263 17.165V20.2193C17.9263 20.889 17.8054 21.0104 17.5417 21.0104C16.8386 21.0104 15.1282 18.428 14.1138 15.4731C13.915 14.8987 13.7157 14.6667 13.1856 14.6667Z" fill="#1A1A1A"/>
</svg>
